<svg xmlns="http://www.w3.org/2000/svg" xmlns:xlink="http://www.w3.org/1999/xlink" xmlns:lucid="lucid" width="2300" height="1164.5"><g transform="translate(300 -100)" lucid:page-tab-id="0_0"><path d="M-1806.4 0h5483.2v1323.2h-5483.2z" fill="#fff"/><path d="M1740 660h240v60h-240z" fill="none"/><use xlink:href="#a" transform="matrix(1,0,0,1,1740,660) translate(84.5 33.6)"/><path d="M240.36 1040h240v60h-240z" fill="none"/><use xlink:href="#a" transform="matrix(1,0,0,1,240.35516094443005,1040) translate(84.5 33.6)"/><path d="M630.1 806.97h240v60h-240z" fill="none"/><use xlink:href="#a" transform="matrix(1,0,0,1,630.094886094101,806.965563325489) translate(84.5 33.6)"/><path d="M-280 682h240v60h-240z" fill="none"/><use xlink:href="#a" transform="matrix(1,0,0,1,-280,682) translate(84.5 33.6)"/><path d="M1388.52 360h240v60h-240z" fill="none"/><use xlink:href="#a" transform="matrix(1,0,0,1,1388.524403478588,360) translate(84.5 33.6)"/><path d="M80 140h360v580H80z" stroke="#000" stroke-width="2" fill="#fff"/><path d="M80 199.2h360M80 383.9h360" stroke="#000" stroke-width="2" fill="none"/><use xlink:href="#b" transform="matrix(1,0,0,1,88,148) translate(128.525 14.799999999999999)"/><use xlink:href="#c" transform="matrix(1,0,0,1,88,148) translate(153.05 36.4)"/><use xlink:href="#d" transform="matrix(1,0,0,1,92,207.2) translate(0 23.300000000000004)"/><use xlink:href="#e" transform="matrix(1,0,0,1,92,207.2) translate(10.95 23.300000000000004)"/><use xlink:href="#f" transform="matrix(1,0,0,1,92,207.2) translate(95.85000000000001 23.300000000000004)"/><use xlink:href="#g" transform="matrix(1,0,0,1,92,207.2) translate(105.85000000000001 23.300000000000004)"/><use xlink:href="#d" transform="matrix(1,0,0,1,92,207.2) translate(0 44.900000000000006)"/><use xlink:href="#h" transform="matrix(1,0,0,1,92,207.2) translate(10.95 44.900000000000006)"/><use xlink:href="#f" transform="matrix(1,0,0,1,92,207.2) translate(92.85000000000001 44.900000000000006)"/><use xlink:href="#g" transform="matrix(1,0,0,1,92,207.2) translate(102.85000000000001 44.900000000000006)"/><use xlink:href="#d" transform="matrix(1,0,0,1,92,207.2) translate(0 66.50000000000001)"/><use xlink:href="#i" transform="matrix(1,0,0,1,92,207.2) translate(10.95 66.50000000000001)"/><use xlink:href="#f" transform="matrix(1,0,0,1,92,207.2) translate(60.900000000000006 66.50000000000001)"/><use xlink:href="#g" transform="matrix(1,0,0,1,92,207.2) translate(70.9 66.50000000000001)"/><use xlink:href="#d" transform="matrix(1,0,0,1,92,207.2) translate(0 88.10000000000002)"/><use xlink:href="#j" transform="matrix(1,0,0,1,92,207.2) translate(10.95 88.10000000000002)"/><use xlink:href="#f" transform="matrix(1,0,0,1,92,207.2) translate(85.85000000000001 88.10000000000002)"/><use xlink:href="#g" transform="matrix(1,0,0,1,92,207.2) translate(95.85000000000001 88.10000000000002)"/><use xlink:href="#d" transform="matrix(1,0,0,1,92,207.2) translate(0 109.70000000000002)"/><use xlink:href="#k" transform="matrix(1,0,0,1,92,207.2) translate(10.95 109.70000000000002)"/><use xlink:href="#f" transform="matrix(1,0,0,1,92,207.2) translate(58.80000000000001 109.70000000000002)"/><use xlink:href="#g" transform="matrix(1,0,0,1,92,207.2) translate(68.80000000000001 109.70000000000002)"/><use xlink:href="#d" transform="matrix(1,0,0,1,92,207.2) translate(0 131.3)"/><use xlink:href="#l" transform="matrix(1,0,0,1,92,207.2) translate(10.95 131.3)"/><use xlink:href="#f" transform="matrix(1,0,0,1,92,207.2) translate(65.95 131.3)"/><use xlink:href="#g" transform="matrix(1,0,0,1,92,207.2) translate(75.95 131.3)"/><use xlink:href="#d" transform="matrix(1,0,0,1,92,207.2) translate(0 152.9)"/><use xlink:href="#m" transform="matrix(1,0,0,1,92,207.2) translate(10.95 152.9)"/><use xlink:href="#f" transform="matrix(1,0,0,1,92,207.2) translate(92.9 152.9)"/><use xlink:href="#n" transform="matrix(1,0,0,1,92,207.2) translate(102.9 152.9)"/><use xlink:href="#o" transform="matrix(1,0,0,1,92,391.9) translate(0 23.20000000000001)"/><use xlink:href="#p" transform="matrix(1,0,0,1,92,391.9) translate(15.5 23.20000000000001)"/><use xlink:href="#q" transform="matrix(1,0,0,1,92,391.9) translate(128.35000000000002 23.20000000000001)"/><use xlink:href="#f" transform="matrix(1,0,0,1,92,391.9) translate(145.25000000000003 23.20000000000001)"/><use xlink:href="#g" transform="matrix(1,0,0,1,92,391.9) translate(155.25000000000003 23.20000000000001)"/><use xlink:href="#o" transform="matrix(1,0,0,1,92,391.9) translate(0 44.80000000000001)"/><use xlink:href="#r" transform="matrix(1,0,0,1,92,391.9) translate(15.5 44.80000000000001)"/><use xlink:href="#s" transform="matrix(1,0,0,1,92,391.9) translate(127.35000000000001 44.80000000000001)"/><use xlink:href="#t" transform="matrix(1,0,0,1,92,391.9) translate(152.25 44.80000000000001)"/><use xlink:href="#f" transform="matrix(1,0,0,1,92,391.9) translate(292 44.80000000000001)"/><use xlink:href="#u" transform="matrix(1,0,0,1,92,391.9) translate(302 44.80000000000001)"/><use xlink:href="#o" transform="matrix(1,0,0,1,92,391.9) translate(0 66.40000000000002)"/><use xlink:href="#v" transform="matrix(1,0,0,1,92,391.9) translate(15.5 66.40000000000002)"/><use xlink:href="#q" transform="matrix(1,0,0,1,92,391.9) translate(124.4 66.40000000000002)"/><use xlink:href="#f" transform="matrix(1,0,0,1,92,391.9) translate(141.3 66.40000000000002)"/><use xlink:href="#g" transform="matrix(1,0,0,1,92,391.9) translate(151.3 66.40000000000002)"/><use xlink:href="#o" transform="matrix(1,0,0,1,92,391.9) translate(0 88.00000000000003)"/><use xlink:href="#w" transform="matrix(1,0,0,1,92,391.9) translate(15.5 88.00000000000003)"/><use xlink:href="#s" transform="matrix(1,0,0,1,92,391.9) translate(123.4 88.00000000000003)"/><use xlink:href="#x" transform="matrix(1,0,0,1,92,391.9) translate(148.3 88.00000000000003)"/><use xlink:href="#f" transform="matrix(1,0,0,1,92,391.9) translate(285.05 88.00000000000003)"/><use xlink:href="#u" transform="matrix(1,0,0,1,92,391.9) translate(295.05 88.00000000000003)"/><use xlink:href="#o" transform="matrix(1,0,0,1,92,391.9) translate(0 109.60000000000002)"/><use xlink:href="#y" transform="matrix(1,0,0,1,92,391.9) translate(15.5 109.60000000000002)"/><use xlink:href="#q" transform="matrix(1,0,0,1,92,391.9) translate(93.4 109.60000000000002)"/><use xlink:href="#f" transform="matrix(1,0,0,1,92,391.9) translate(110.30000000000001 109.60000000000002)"/><use xlink:href="#g" transform="matrix(1,0,0,1,92,391.9) translate(120.30000000000001 109.60000000000002)"/><use xlink:href="#o" transform="matrix(1,0,0,1,92,391.9) translate(0 131.20000000000002)"/><use xlink:href="#z" transform="matrix(1,0,0,1,92,391.9) translate(15.5 131.20000000000002)"/><use xlink:href="#s" transform="matrix(1,0,0,1,92,391.9) translate(92.4 131.20000000000002)"/><use xlink:href="#A" transform="matrix(1,0,0,1,92,391.9) translate(117.30000000000001 131.20000000000002)"/><use xlink:href="#f" transform="matrix(1,0,0,1,92,391.9) translate(222.10000000000002 131.20000000000002)"/><use xlink:href="#u" transform="matrix(1,0,0,1,92,391.9) translate(232.10000000000002 131.20000000000002)"/><use xlink:href="#o" transform="matrix(1,0,0,1,92,391.9) translate(0 152.8)"/><use xlink:href="#B" transform="matrix(1,0,0,1,92,391.9) translate(15.5 152.8)"/><use xlink:href="#q" transform="matrix(1,0,0,1,92,391.9) translate(118.4 152.8)"/><use xlink:href="#f" transform="matrix(1,0,0,1,92,391.9) translate(135.3 152.8)"/><use xlink:href="#g" transform="matrix(1,0,0,1,92,391.9) translate(145.3 152.8)"/><use xlink:href="#o" transform="matrix(1,0,0,1,92,391.9) translate(0 174.4)"/><use xlink:href="#C" transform="matrix(1,0,0,1,92,391.9) translate(15.5 174.4)"/><use xlink:href="#s" transform="matrix(1,0,0,1,92,391.9) translate(117.4 174.4)"/><use xlink:href="#D" transform="matrix(1,0,0,1,92,391.9) translate(142.3 174.4)"/><use xlink:href="#f" transform="matrix(1,0,0,1,92,391.9) translate(272.05 174.4)"/><use xlink:href="#u" transform="matrix(1,0,0,1,92,391.9) translate(282.05 174.4)"/><use xlink:href="#o" transform="matrix(1,0,0,1,92,391.9) translate(0 196)"/><use xlink:href="#E" transform="matrix(1,0,0,1,92,391.9) translate(15.5 196)"/><use xlink:href="#q" transform="matrix(1,0,0,1,92,391.9) translate(90.35000000000001 196)"/><use xlink:href="#f" transform="matrix(1,0,0,1,92,391.9) translate(107.25 196)"/><use xlink:href="#g" transform="matrix(1,0,0,1,92,391.9) translate(117.25 196)"/><use xlink:href="#o" transform="matrix(1,0,0,1,92,391.9) translate(0 217.6)"/><use xlink:href="#F" transform="matrix(1,0,0,1,92,391.9) translate(15.5 217.6)"/><use xlink:href="#s" transform="matrix(1,0,0,1,92,391.9) translate(89.35000000000001 217.6)"/><use xlink:href="#G" transform="matrix(1,0,0,1,92,391.9) translate(114.25 217.6)"/><use xlink:href="#f" transform="matrix(1,0,0,1,92,391.9) translate(216.95000000000002 217.6)"/><use xlink:href="#u" transform="matrix(1,0,0,1,92,391.9) translate(226.95000000000002 217.6)"/><use xlink:href="#o" transform="matrix(1,0,0,1,92,391.9) translate(0 239.2)"/><use xlink:href="#H" transform="matrix(1,0,0,1,92,391.9) translate(15.5 239.2)"/><use xlink:href="#f" transform="matrix(1,0,0,1,92,391.9) translate(109.4 239.2)"/><use xlink:href="#g" transform="matrix(1,0,0,1,92,391.9) translate(119.4 239.2)"/><use xlink:href="#o" transform="matrix(1,0,0,1,92,391.9) translate(0 260.79999999999995)"/><use xlink:href="#I" transform="matrix(1,0,0,1,92,391.9) translate(15.5 260.79999999999995)"/><use xlink:href="#s" transform="matrix(1,0,0,1,92,391.9) translate(96.5 260.79999999999995)"/><use xlink:href="#J" transform="matrix(1,0,0,1,92,391.9) translate(121.4 260.79999999999995)"/><use xlink:href="#f" transform="matrix(1,0,0,1,92,391.9) translate(231.25 260.79999999999995)"/><use xlink:href="#u" transform="matrix(1,0,0,1,92,391.9) translate(241.25 260.79999999999995)"/><use xlink:href="#o" transform="matrix(1,0,0,1,92,391.9) translate(0 282.4)"/><use xlink:href="#K" transform="matrix(1,0,0,1,92,391.9) translate(15.5 282.4)"/><use xlink:href="#q" transform="matrix(1,0,0,1,92,391.9) translate(124.45 282.4)"/><use xlink:href="#f" transform="matrix(1,0,0,1,92,391.9) translate(141.35 282.4)"/><use xlink:href="#L" transform="matrix(1,0,0,1,92,391.9) translate(151.35 282.4)"/><use xlink:href="#o" transform="matrix(1,0,0,1,92,391.9) translate(0 304)"/><use xlink:href="#M" transform="matrix(1,0,0,1,92,391.9) translate(15.5 304)"/><use xlink:href="#s" transform="matrix(1,0,0,1,92,391.9) translate(123.45 304)"/><use xlink:href="#N" transform="matrix(1,0,0,1,92,391.9) translate(148.35 304)"/><use xlink:href="#f" transform="matrix(1,0,0,1,92,391.9) translate(260.2 304)"/><use xlink:href="#O" transform="matrix(1,0,0,1,92,391.9) translate(270.2 304)"/><path d="M520 120h360v588H520z" stroke="#000" stroke-width="2" fill="#fff"/><path d="M520 179.2h360M520 367.9h360" stroke="#000" stroke-width="2" fill="none"/><g><use xlink:href="#P" transform="matrix(1,0,0,1,528,128) translate(130 14.799999999999999)"/><use xlink:href="#Q" transform="matrix(1,0,0,1,528,128) translate(132.05 36.4)"/></g><g><use xlink:href="#d" transform="matrix(1,0,0,1,532,187.2) translate(0 25.300000000000004)"/><use xlink:href="#e" transform="matrix(1,0,0,1,532,187.2) translate(10.95 25.300000000000004)"/><use xlink:href="#f" transform="matrix(1,0,0,1,532,187.2) translate(95.85000000000001 25.300000000000004)"/><use xlink:href="#g" transform="matrix(1,0,0,1,532,187.2) translate(105.85000000000001 25.300000000000004)"/><use xlink:href="#d" transform="matrix(1,0,0,1,532,187.2) translate(0 46.900000000000006)"/><use xlink:href="#h" transform="matrix(1,0,0,1,532,187.2) translate(10.95 46.900000000000006)"/><use xlink:href="#f" transform="matrix(1,0,0,1,532,187.2) translate(92.85000000000001 46.900000000000006)"/><use xlink:href="#g" transform="matrix(1,0,0,1,532,187.2) translate(102.85000000000001 46.900000000000006)"/><use xlink:href="#d" transform="matrix(1,0,0,1,532,187.2) translate(0 68.50000000000001)"/><use xlink:href="#i" transform="matrix(1,0,0,1,532,187.2) translate(10.95 68.50000000000001)"/><use xlink:href="#f" transform="matrix(1,0,0,1,532,187.2) translate(60.900000000000006 68.50000000000001)"/><use xlink:href="#g" transform="matrix(1,0,0,1,532,187.2) translate(70.9 68.50000000000001)"/><use xlink:href="#d" transform="matrix(1,0,0,1,532,187.2) translate(0 90.10000000000002)"/><use xlink:href="#j" transform="matrix(1,0,0,1,532,187.2) translate(10.95 90.10000000000002)"/><use xlink:href="#f" transform="matrix(1,0,0,1,532,187.2) translate(85.85000000000001 90.10000000000002)"/><use xlink:href="#g" transform="matrix(1,0,0,1,532,187.2) translate(95.85000000000001 90.10000000000002)"/><use xlink:href="#d" transform="matrix(1,0,0,1,532,187.2) translate(0 111.70000000000002)"/><use xlink:href="#k" transform="matrix(1,0,0,1,532,187.2) translate(10.95 111.70000000000002)"/><use xlink:href="#f" transform="matrix(1,0,0,1,532,187.2) translate(58.80000000000001 111.70000000000002)"/><use xlink:href="#g" transform="matrix(1,0,0,1,532,187.2) translate(68.80000000000001 111.70000000000002)"/><use xlink:href="#d" transform="matrix(1,0,0,1,532,187.2) translate(0 133.3)"/><use xlink:href="#l" transform="matrix(1,0,0,1,532,187.2) translate(10.95 133.3)"/><use xlink:href="#f" transform="matrix(1,0,0,1,532,187.2) translate(65.95 133.3)"/><use xlink:href="#g" transform="matrix(1,0,0,1,532,187.2) translate(75.95 133.3)"/><use xlink:href="#d" transform="matrix(1,0,0,1,532,187.2) translate(0 154.9)"/><use xlink:href="#m" transform="matrix(1,0,0,1,532,187.2) translate(10.95 154.9)"/><use xlink:href="#f" transform="matrix(1,0,0,1,532,187.2) translate(92.9 154.9)"/><use xlink:href="#n" transform="matrix(1,0,0,1,532,187.2) translate(102.9 154.9)"/></g><g><use xlink:href="#o" transform="matrix(1,0,0,1,532,375.9) translate(0 25.20000000000001)"/><use xlink:href="#p" transform="matrix(1,0,0,1,532,375.9) translate(15.5 25.20000000000001)"/><use xlink:href="#q" transform="matrix(1,0,0,1,532,375.9) translate(128.35000000000002 25.20000000000001)"/><use xlink:href="#f" transform="matrix(1,0,0,1,532,375.9) translate(145.25000000000003 25.20000000000001)"/><use xlink:href="#g" transform="matrix(1,0,0,1,532,375.9) translate(155.25000000000003 25.20000000000001)"/><use xlink:href="#o" transform="matrix(1,0,0,1,532,375.9) translate(0 46.80000000000001)"/><use xlink:href="#r" transform="matrix(1,0,0,1,532,375.9) translate(15.5 46.80000000000001)"/><use xlink:href="#s" transform="matrix(1,0,0,1,532,375.9) translate(127.35000000000001 46.80000000000001)"/><use xlink:href="#t" transform="matrix(1,0,0,1,532,375.9) translate(152.25 46.80000000000001)"/><use xlink:href="#f" transform="matrix(1,0,0,1,532,375.9) translate(292 46.80000000000001)"/><use xlink:href="#u" transform="matrix(1,0,0,1,532,375.9) translate(302 46.80000000000001)"/><use xlink:href="#o" transform="matrix(1,0,0,1,532,375.9) translate(0 68.40000000000002)"/><use xlink:href="#v" transform="matrix(1,0,0,1,532,375.9) translate(15.5 68.40000000000002)"/><use xlink:href="#q" transform="matrix(1,0,0,1,532,375.9) translate(124.4 68.40000000000002)"/><use xlink:href="#f" transform="matrix(1,0,0,1,532,375.9) translate(141.3 68.40000000000002)"/><use xlink:href="#g" transform="matrix(1,0,0,1,532,375.9) translate(151.3 68.40000000000002)"/><use xlink:href="#o" transform="matrix(1,0,0,1,532,375.9) translate(0 90.00000000000003)"/><use xlink:href="#w" transform="matrix(1,0,0,1,532,375.9) translate(15.5 90.00000000000003)"/><use xlink:href="#s" transform="matrix(1,0,0,1,532,375.9) translate(123.4 90.00000000000003)"/><use xlink:href="#x" transform="matrix(1,0,0,1,532,375.9) translate(148.3 90.00000000000003)"/><use xlink:href="#f" transform="matrix(1,0,0,1,532,375.9) translate(285.05 90.00000000000003)"/><use xlink:href="#u" transform="matrix(1,0,0,1,532,375.9) translate(295.05 90.00000000000003)"/><use xlink:href="#o" transform="matrix(1,0,0,1,532,375.9) translate(0 111.60000000000002)"/><use xlink:href="#y" transform="matrix(1,0,0,1,532,375.9) translate(15.5 111.60000000000002)"/><use xlink:href="#q" transform="matrix(1,0,0,1,532,375.9) translate(93.4 111.60000000000002)"/><use xlink:href="#f" transform="matrix(1,0,0,1,532,375.9) translate(110.30000000000001 111.60000000000002)"/><use xlink:href="#g" transform="matrix(1,0,0,1,532,375.9) translate(120.30000000000001 111.60000000000002)"/><use xlink:href="#o" transform="matrix(1,0,0,1,532,375.9) translate(0 133.20000000000002)"/><use xlink:href="#z" transform="matrix(1,0,0,1,532,375.9) translate(15.5 133.20000000000002)"/><use xlink:href="#s" transform="matrix(1,0,0,1,532,375.9) translate(92.4 133.20000000000002)"/><use xlink:href="#A" transform="matrix(1,0,0,1,532,375.9) translate(117.30000000000001 133.20000000000002)"/><use xlink:href="#f" transform="matrix(1,0,0,1,532,375.9) translate(222.10000000000002 133.20000000000002)"/><use xlink:href="#u" transform="matrix(1,0,0,1,532,375.9) translate(232.10000000000002 133.20000000000002)"/><use xlink:href="#o" transform="matrix(1,0,0,1,532,375.9) translate(0 154.8)"/><use xlink:href="#B" transform="matrix(1,0,0,1,532,375.9) translate(15.5 154.8)"/><use xlink:href="#q" transform="matrix(1,0,0,1,532,375.9) translate(118.4 154.8)"/><use xlink:href="#f" transform="matrix(1,0,0,1,532,375.9) translate(135.3 154.8)"/><use xlink:href="#g" transform="matrix(1,0,0,1,532,375.9) translate(145.3 154.8)"/><use xlink:href="#o" transform="matrix(1,0,0,1,532,375.9) translate(0 176.4)"/><use xlink:href="#C" transform="matrix(1,0,0,1,532,375.9) translate(15.5 176.4)"/><use xlink:href="#s" transform="matrix(1,0,0,1,532,375.9) translate(117.4 176.4)"/><use xlink:href="#D" transform="matrix(1,0,0,1,532,375.9) translate(142.3 176.4)"/><use xlink:href="#f" transform="matrix(1,0,0,1,532,375.9) translate(272.05 176.4)"/><use xlink:href="#u" transform="matrix(1,0,0,1,532,375.9) translate(282.05 176.4)"/><use xlink:href="#o" transform="matrix(1,0,0,1,532,375.9) translate(0 198)"/><use xlink:href="#E" transform="matrix(1,0,0,1,532,375.9) translate(15.5 198)"/><use xlink:href="#q" transform="matrix(1,0,0,1,532,375.9) translate(90.35000000000001 198)"/><use xlink:href="#f" transform="matrix(1,0,0,1,532,375.9) translate(107.25 198)"/><use xlink:href="#g" transform="matrix(1,0,0,1,532,375.9) translate(117.25 198)"/><use xlink:href="#o" transform="matrix(1,0,0,1,532,375.9) translate(0 219.6)"/><use xlink:href="#F" transform="matrix(1,0,0,1,532,375.9) translate(15.5 219.6)"/><use xlink:href="#s" transform="matrix(1,0,0,1,532,375.9) translate(89.35000000000001 219.6)"/><use xlink:href="#G" transform="matrix(1,0,0,1,532,375.9) translate(114.25 219.6)"/><use xlink:href="#f" transform="matrix(1,0,0,1,532,375.9) translate(216.95000000000002 219.6)"/><use xlink:href="#u" transform="matrix(1,0,0,1,532,375.9) translate(226.95000000000002 219.6)"/><use xlink:href="#o" transform="matrix(1,0,0,1,532,375.9) translate(0 241.2)"/><use xlink:href="#H" transform="matrix(1,0,0,1,532,375.9) translate(15.5 241.2)"/><use xlink:href="#f" transform="matrix(1,0,0,1,532,375.9) translate(109.4 241.2)"/><use xlink:href="#g" transform="matrix(1,0,0,1,532,375.9) translate(119.4 241.2)"/><use xlink:href="#o" transform="matrix(1,0,0,1,532,375.9) translate(0 262.79999999999995)"/><use xlink:href="#I" transform="matrix(1,0,0,1,532,375.9) translate(15.5 262.79999999999995)"/><use xlink:href="#s" transform="matrix(1,0,0,1,532,375.9) translate(96.5 262.79999999999995)"/><use xlink:href="#J" transform="matrix(1,0,0,1,532,375.9) translate(121.4 262.79999999999995)"/><use xlink:href="#f" transform="matrix(1,0,0,1,532,375.9) translate(231.25 262.79999999999995)"/><use xlink:href="#u" transform="matrix(1,0,0,1,532,375.9) translate(241.25 262.79999999999995)"/><use xlink:href="#o" transform="matrix(1,0,0,1,532,375.9) translate(0 284.4)"/><use xlink:href="#K" transform="matrix(1,0,0,1,532,375.9) translate(15.5 284.4)"/><use xlink:href="#q" transform="matrix(1,0,0,1,532,375.9) translate(124.45 284.4)"/><use xlink:href="#f" transform="matrix(1,0,0,1,532,375.9) translate(141.35 284.4)"/><use xlink:href="#L" transform="matrix(1,0,0,1,532,375.9) translate(151.35 284.4)"/><use xlink:href="#o" transform="matrix(1,0,0,1,532,375.9) translate(0 306)"/><use xlink:href="#M" transform="matrix(1,0,0,1,532,375.9) translate(15.5 306)"/><use xlink:href="#s" transform="matrix(1,0,0,1,532,375.9) translate(123.45 306)"/><use xlink:href="#N" transform="matrix(1,0,0,1,532,375.9) translate(148.35 306)"/><use xlink:href="#f" transform="matrix(1,0,0,1,532,375.9) translate(260.2 306)"/><use xlink:href="#O" transform="matrix(1,0,0,1,532,375.9) translate(270.2 306)"/></g><path d="M1220 760h360v264h-360z" stroke="#000" stroke-width="2" fill="#fff"/><path d="M1220 819.2h360m-360 80.7h360" stroke="#000" stroke-width="2" fill="none"/><g><use xlink:href="#b" transform="matrix(1,0,0,1,1228,768) translate(128.525 14.799999999999999)"/><use xlink:href="#R" transform="matrix(1,0,0,1,1228,768) translate(151.55 36.4)"/></g><g><use xlink:href="#d" transform="matrix(1,0,0,1,1232,827.2) translate(0 25.299999999999997)"/><use xlink:href="#i" transform="matrix(1,0,0,1,1232,827.2) translate(10.95 25.299999999999997)"/><use xlink:href="#f" transform="matrix(1,0,0,1,1232,827.2) translate(60.900000000000006 25.299999999999997)"/><use xlink:href="#S" transform="matrix(1,0,0,1,1232,827.2) translate(70.9 25.299999999999997)"/><use xlink:href="#d" transform="matrix(1,0,0,1,1232,827.2) translate(0 46.9)"/><use xlink:href="#T" transform="matrix(1,0,0,1,1232,827.2) translate(10.95 46.9)"/><use xlink:href="#f" transform="matrix(1,0,0,1,1232,827.2) translate(48.95 46.9)"/><use xlink:href="#n" transform="matrix(1,0,0,1,1232,827.2) translate(58.95 46.9)"/></g><g><use xlink:href="#o" transform="matrix(1,0,0,1,1232,907.9000000000001) translate(0 25.19999999999999)"/><use xlink:href="#U" transform="matrix(1,0,0,1,1232,907.9000000000001) translate(15.5 25.19999999999999)"/><use xlink:href="#f" transform="matrix(1,0,0,1,1232,907.9000000000001) translate(105.30000000000001 25.19999999999999)"/><use xlink:href="#g" transform="matrix(1,0,0,1,1232,907.9000000000001) translate(115.30000000000001 25.19999999999999)"/><use xlink:href="#o" transform="matrix(1,0,0,1,1232,907.9000000000001) translate(0 46.79999999999999)"/><use xlink:href="#z" transform="matrix(1,0,0,1,1232,907.9000000000001) translate(15.5 46.79999999999999)"/><use xlink:href="#s" transform="matrix(1,0,0,1,1232,907.9000000000001) translate(92.4 46.79999999999999)"/><use xlink:href="#A" transform="matrix(1,0,0,1,1232,907.9000000000001) translate(117.30000000000001 46.79999999999999)"/><use xlink:href="#f" transform="matrix(1,0,0,1,1232,907.9000000000001) translate(222.10000000000002 46.79999999999999)"/><use xlink:href="#u" transform="matrix(1,0,0,1,1232,907.9000000000001) translate(232.10000000000002 46.79999999999999)"/><use xlink:href="#o" transform="matrix(1,0,0,1,1232,907.9000000000001) translate(0 68.39999999999999)"/><use xlink:href="#V" transform="matrix(1,0,0,1,1232,907.9000000000001) translate(15.5 68.39999999999999)"/><use xlink:href="#q" transform="matrix(1,0,0,1,1232,907.9000000000001) translate(82.45 68.39999999999999)"/><use xlink:href="#f" transform="matrix(1,0,0,1,1232,907.9000000000001) translate(99.35 68.39999999999999)"/><use xlink:href="#L" transform="matrix(1,0,0,1,1232,907.9000000000001) translate(109.35 68.39999999999999)"/><use xlink:href="#o" transform="matrix(1,0,0,1,1232,907.9000000000001) translate(0 90)"/><use xlink:href="#W" transform="matrix(1,0,0,1,1232,907.9000000000001) translate(15.5 90)"/><use xlink:href="#s" transform="matrix(1,0,0,1,1232,907.9000000000001) translate(81.45 90)"/><use xlink:href="#X" transform="matrix(1,0,0,1,1232,907.9000000000001) translate(106.35 90)"/><use xlink:href="#f" transform="matrix(1,0,0,1,1232,907.9000000000001) translate(174.25 90)"/><use xlink:href="#O" transform="matrix(1,0,0,1,1232,907.9000000000001) translate(184.25 90)"/></g><path d="M1060 315h360v198h-360z" stroke="#000" stroke-width="2" fill="#fff"/><path d="M1060 374.2h360" stroke="#000" stroke-width="2" fill="none"/><g><use xlink:href="#Y" transform="matrix(1,0,0,1,1068,323) translate(112.525 14.799999999999999)"/><use xlink:href="#Z" transform="matrix(1,0,0,1,1068,323) translate(151 36.4)"/></g><g><use xlink:href="#o" transform="matrix(1,0,0,1,1072,382.2) translate(0 65.10000000000001)"/><use xlink:href="#aa" transform="matrix(1,0,0,1,1072,382.2) translate(15.5 65.10000000000001)"/><use xlink:href="#q" transform="matrix(1,0,0,1,1072,382.2) translate(123.30000000000001 65.10000000000001)"/><use xlink:href="#f" transform="matrix(1,0,0,1,1072,382.2) translate(140.20000000000002 65.10000000000001)"/><use xlink:href="#O" transform="matrix(1,0,0,1,1072,382.2) translate(150.20000000000002 65.10000000000001)"/></g><path d="M1620 300h360v241h-360z" stroke="#000" stroke-width="2" fill="#fff"/><path d="M1620 359.2h360" stroke="#000" stroke-width="2" fill="none"/><g><use xlink:href="#ab" transform="matrix(1,0,0,1,1628,308) translate(122.07499999999999 14.799999999999999)"/><use xlink:href="#ac" transform="matrix(1,0,0,1,1628,308) translate(122.07499999999999 36.4)"/></g><g><use xlink:href="#o" transform="matrix(1,0,0,1,1632,367.2) translate(0 65)"/><use xlink:href="#ad" transform="matrix(1,0,0,1,1632,367.2) translate(15.5 65)"/><use xlink:href="#q" transform="matrix(1,0,0,1,1632,367.2) translate(84.45 65)"/><use xlink:href="#f" transform="matrix(1,0,0,1,1632,367.2) translate(101.35 65)"/><use xlink:href="#u" transform="matrix(1,0,0,1,1632,367.2) translate(111.35 65)"/><use xlink:href="#o" transform="matrix(1,0,0,1,1632,367.2) translate(0 86.60000000000001)"/><use xlink:href="#ae" transform="matrix(1,0,0,1,1632,367.2) translate(15.5 86.60000000000001)"/><use xlink:href="#q" transform="matrix(1,0,0,1,1632,367.2) translate(144.35000000000002 86.60000000000001)"/><use xlink:href="#f" transform="matrix(1,0,0,1,1632,367.2) translate(161.25000000000003 86.60000000000001)"/><use xlink:href="#af" transform="matrix(1,0,0,1,1632,367.2) translate(171.25000000000003 86.60000000000001)"/><use xlink:href="#o" transform="matrix(1,0,0,1,1632,367.2) translate(0 108.20000000000002)"/><use xlink:href="#ag" transform="matrix(1,0,0,1,1632,367.2) translate(15.5 108.20000000000002)"/><use xlink:href="#q" transform="matrix(1,0,0,1,1632,367.2) translate(156.45 108.20000000000002)"/><use xlink:href="#f" transform="matrix(1,0,0,1,1632,367.2) translate(173.35 108.20000000000002)"/><use xlink:href="#O" transform="matrix(1,0,0,1,1632,367.2) translate(183.35 108.20000000000002)"/></g><path d="M440 980h520v200H440z" stroke="#000" stroke-width="2" fill="#fff"/><path d="M440 1039.2h520" stroke="#000" stroke-width="2" fill="none"/><g><use xlink:href="#ab" transform="matrix(1,0,0,1,448,988) translate(202.075 14.799999999999999)"/><use xlink:href="#ah" transform="matrix(1,0,0,1,448,988) translate(191.14999999999998 36.4)"/></g><g><use xlink:href="#ai" transform="matrix(1,0,0,1,452,1047.2) translate(0 55.8)"/><use xlink:href="#aj" transform="matrix(1,0,0,1,452,1047.2) translate(15.5 55.8)"/><use xlink:href="#ak" transform="matrix(1,0,0,1,452,1047.2) translate(58.4 55.8)"/><use xlink:href="#al" transform="matrix(1,0,0,1,452,1047.2) translate(83.3 55.8)"/><use xlink:href="#am" transform="matrix(1,0,0,1,452,1047.2) translate(173.2 55.8)"/><use xlink:href="#an" transform="matrix(1,0,0,1,452,1047.2) translate(227.1 55.8)"/><use xlink:href="#ao" transform="matrix(1,0,0,1,452,1047.2) translate(246.04999999999998 55.8)"/><use xlink:href="#ap" transform="matrix(1,0,0,1,452,1047.2) translate(332.95 55.8)"/><use xlink:href="#ai" transform="matrix(1,0,0,1,452,1047.2) translate(0 77.4)"/><use xlink:href="#aq" transform="matrix(1,0,0,1,452,1047.2) translate(15.5 77.4)"/><use xlink:href="#ak" transform="matrix(1,0,0,1,452,1047.2) translate(163.3 77.4)"/><use xlink:href="#al" transform="matrix(1,0,0,1,452,1047.2) translate(188.20000000000002 77.4)"/><use xlink:href="#am" transform="matrix(1,0,0,1,452,1047.2) translate(278.1 77.4)"/><use xlink:href="#an" transform="matrix(1,0,0,1,452,1047.2) translate(332 77.4)"/><use xlink:href="#ao" transform="matrix(1,0,0,1,452,1047.2) translate(350.95 77.4)"/><use xlink:href="#ar" transform="matrix(1,0,0,1,452,1047.2) translate(437.85 77.4)"/></g><path d="M700 960.5V710" stroke="#000" stroke-width="2" fill="none"/><path d="M700 975.76l-4.64-14.26h9.28z" stroke="#000" stroke-width="2"/><path d="M701 710.03h-2V709h2z"/><path d="M882 414h158.5" stroke="#000" stroke-width="2" fill="none"/><path d="M882.03 415H881v-2h1.03z"/><path d="M1055.76 414l-14.26 4.64v-9.28z" stroke="#000" stroke-width="2"/><g><use xlink:href="#a" transform="matrix(1,0,0,1,934.5,388.4) translate(0 14.4)"/></g><path d="M1422 414h178.5" stroke="#000" stroke-width="2" fill="none"/><path d="M1422.03 415H1421v-2h1.03z"/><path d="M1615.76 414l-14.26 4.64v-9.28z" stroke="#000" stroke-width="2"/><path d="M1800 543v349h-200.5" stroke="#000" stroke-width="2" fill="none"/><path d="M1801 543.03h-2V542h2z"/><path d="M1584.24 892l14.26-4.64v9.28z" stroke="#000" stroke-width="2"/><path d="M-280 915.5h560v329h-560z" stroke="#000" stroke-width="2" fill="#fff"/><path d="M-280 953.1h560M-280 1077h560" stroke="#000" stroke-width="2" fill="none"/><g><use xlink:href="#as" transform="matrix(1,0,0,1,-272,923.5) translate(233.575 14.6)"/></g><g><use xlink:href="#at" transform="matrix(1,0,0,1,-268,961.1) translate(0 25.19999999999999)"/><use xlink:href="#au" transform="matrix(1,0,0,1,-268,961.1) translate(10.95 25.19999999999999)"/><use xlink:href="#av" transform="matrix(1,0,0,1,-268,961.1) translate(65.85000000000001 25.19999999999999)"/><use xlink:href="#aw" transform="matrix(1,0,0,1,-268,961.1) translate(75.85000000000001 25.19999999999999)"/><use xlink:href="#at" transform="matrix(1,0,0,1,-268,961.1) translate(0 46.79999999999999)"/><use xlink:href="#ax" transform="matrix(1,0,0,1,-268,961.1) translate(10.95 46.79999999999999)"/><use xlink:href="#av" transform="matrix(1,0,0,1,-268,961.1) translate(62.599999999999994 46.79999999999999)"/><use xlink:href="#aw" transform="matrix(1,0,0,1,-268,961.1) translate(72.6 46.79999999999999)"/><use xlink:href="#at" transform="matrix(1,0,0,1,-268,961.1) translate(0 68.39999999999999)"/><use xlink:href="#ay" transform="matrix(1,0,0,1,-268,961.1) translate(10.95 68.39999999999999)"/><use xlink:href="#av" transform="matrix(1,0,0,1,-268,961.1) translate(86.15000000000002 68.39999999999999)"/><use xlink:href="#aw" transform="matrix(1,0,0,1,-268,961.1) translate(96.15000000000002 68.39999999999999)"/><use xlink:href="#at" transform="matrix(1,0,0,1,-268,961.1) translate(0 90)"/><use xlink:href="#az" transform="matrix(1,0,0,1,-268,961.1) translate(10.95 90)"/><use xlink:href="#av" transform="matrix(1,0,0,1,-268,961.1) translate(214.64999999999998 90)"/><use xlink:href="#aA" transform="matrix(1,0,0,1,-268,961.1) translate(224.64999999999998 90)"/></g><g><use xlink:href="#ai" transform="matrix(1,0,0,1,-268,1085) translate(0 25.6)"/><use xlink:href="#aB" transform="matrix(1,0,0,1,-268,1085) translate(15.5 25.6)"/><use xlink:href="#ak" transform="matrix(1,0,0,1,-268,1085) translate(150.35000000000002 25.6)"/><use xlink:href="#aC" transform="matrix(1,0,0,1,-268,1085) translate(175.25000000000003 25.6)"/><use xlink:href="#av" transform="matrix(1,0,0,1,-268,1085) translate(315 25.6)"/><use xlink:href="#aD" transform="matrix(1,0,0,1,-268,1085) translate(325 25.6)"/><use xlink:href="#ai" transform="matrix(1,0,0,1,-268,1085) translate(0 47.2)"/><use xlink:href="#aE" transform="matrix(1,0,0,1,-268,1085) translate(15.5 47.2)"/><use xlink:href="#ak" transform="matrix(1,0,0,1,-268,1085) translate(96.4 47.2)"/><use xlink:href="#aF" transform="matrix(1,0,0,1,-268,1085) translate(121.30000000000001 47.2)"/><use xlink:href="#av" transform="matrix(1,0,0,1,-268,1085) translate(207.15000000000003 47.2)"/><use xlink:href="#aG" transform="matrix(1,0,0,1,-268,1085) translate(217.15000000000003 47.2)"/><use xlink:href="#ai" transform="matrix(1,0,0,1,-268,1085) translate(0 68.80000000000001)"/><use xlink:href="#aH" transform="matrix(1,0,0,1,-268,1085) translate(15.5 68.80000000000001)"/><use xlink:href="#ak" transform="matrix(1,0,0,1,-268,1085) translate(107.35000000000001 68.80000000000001)"/><use xlink:href="#aF" transform="matrix(1,0,0,1,-268,1085) translate(132.25 68.80000000000001)"/><use xlink:href="#av" transform="matrix(1,0,0,1,-268,1085) translate(218.10000000000002 68.80000000000001)"/><use xlink:href="#aI" transform="matrix(1,0,0,1,-268,1085) translate(228.10000000000002 68.80000000000001)"/><use xlink:href="#ai" transform="matrix(1,0,0,1,-268,1085) translate(0 90.40000000000002)"/><use xlink:href="#aJ" transform="matrix(1,0,0,1,-268,1085) translate(15.5 90.40000000000002)"/><use xlink:href="#ak" transform="matrix(1,0,0,1,-268,1085) translate(113.4 90.40000000000002)"/><use xlink:href="#aF" transform="matrix(1,0,0,1,-268,1085) translate(138.3 90.40000000000002)"/><use xlink:href="#aK" transform="matrix(1,0,0,1,-268,1085) translate(224.15000000000003 90.40000000000002)"/><use xlink:href="#aL" transform="matrix(1,0,0,1,-268,1085) translate(239.15000000000003 90.40000000000002)"/><use xlink:href="#ai" transform="matrix(1,0,0,1,-268,1085) translate(0 112.00000000000001)"/><use xlink:href="#aM" transform="matrix(1,0,0,1,-268,1085) translate(15.5 112.00000000000001)"/><use xlink:href="#ak" transform="matrix(1,0,0,1,-268,1085) translate(172.35000000000002 112.00000000000001)"/><use xlink:href="#aN" transform="matrix(1,0,0,1,-268,1085) translate(197.25000000000003 112.00000000000001)"/><use xlink:href="#av" transform="matrix(1,0,0,1,-268,1085) translate(342 112.00000000000001)"/><use xlink:href="#aG" transform="matrix(1,0,0,1,-268,1085) translate(352 112.00000000000001)"/><use xlink:href="#ai" transform="matrix(1,0,0,1,-268,1085) translate(0 133.6)"/><use xlink:href="#aO" transform="matrix(1,0,0,1,-268,1085) translate(15.5 133.6)"/><use xlink:href="#ak" transform="matrix(1,0,0,1,-268,1085) translate(192.35 133.6)"/><use xlink:href="#aP" transform="matrix(1,0,0,1,-268,1085) translate(217.25 133.6)"/><use xlink:href="#an" transform="matrix(1,0,0,1,-268,1085) translate(356.05 133.6)"/><use xlink:href="#aQ" transform="matrix(1,0,0,1,-268,1085) translate(375 133.6)"/></g><path d="M438 1080H299.5" stroke="#000" stroke-width="2" fill="none"/><path d="M439 1081h-1.03v-2H439z"/><path d="M284.24 1080l14.26-4.64v9.28z" stroke="#000" stroke-width="2"/><path d="M-114.13 913.5V544H60.5" stroke="#000" stroke-width="2" fill="none"/><path d="M-113.13 914.5h-2v-1.03h2z"/><path d="M75.76 544l-14.26 4.64v-9.27z" stroke="#000" stroke-width="2"/><defs><path d="M18-100v-36l175-74v27L42-118l151 64v27" id="aR"/><path d="M84 4C-5 8 30-112 23-190h32v120c0 31 7 50 39 49 72-2 45-101 50-169h31l1 190h-30c-1-10 1-25-2-33-11 22-28 36-60 37" id="aS"/><path d="M135-143c-3-34-86-38-87 0 15 53 115 12 119 90S17 21 10-45l28-5c4 36 97 45 98 0-10-56-113-15-118-90-4-57 82-63 122-42 12 7 21 19 24 35" id="aT"/><path d="M100-194c63 0 86 42 84 106H49c0 40 14 67 53 68 26 1 43-12 49-29l28 8c-11 28-37 45-77 45C44 4 14-33 15-96c1-61 26-98 85-98zm52 81c6-60-76-77-97-28-3 7-6 17-6 28h103" id="aU"/><path d="M18-27v-27l151-64-151-65v-27l175 74v36" id="aV"/><g id="a"><use transform="matrix(0.05,0,0,0.05,0,0)" xlink:href="#aR"/><use transform="matrix(0.05,0,0,0.05,10.5,0)" xlink:href="#aR"/><use transform="matrix(0.05,0,0,0.05,21,0)" xlink:href="#aS"/><use transform="matrix(0.05,0,0,0.05,31,0)" xlink:href="#aT"/><use transform="matrix(0.05,0,0,0.05,40,0)" xlink:href="#aU"/><use transform="matrix(0.05,0,0,0.05,50,0)" xlink:href="#aV"/><use transform="matrix(0.05,0,0,0.05,60.5,0)" xlink:href="#aV"/></g><path d="M30 0v-248h187v28H63v79h144v27H63v87h162V0H30" id="aW"/><path d="M117-194c89-4 53 116 60 194h-32v-121c0-31-8-49-39-48C34-167 62-67 57 0H25l-1-190h30c1 10-1 24 2 32 11-22 29-35 61-36" id="aX"/><path d="M59-47c-2 24 18 29 38 22v24C64 9 27 4 27-40v-127H5v-23h24l9-43h21v43h35v23H59v120" id="aY"/><path d="M24-231v-30h32v30H24zM24 0v-190h32V0H24" id="aZ"/><path d="M179-190L93 31C79 59 56 82 12 73V49c39 6 53-20 64-50L1-190h34L92-34l54-156h33" id="ba"/><g id="b"><use transform="matrix(0.05,0,0,0.05,0,0)" xlink:href="#aR"/><use transform="matrix(0.05,0,0,0.05,10.5,0)" xlink:href="#aR"/><use transform="matrix(0.05,0,0,0.05,21,0)" xlink:href="#aW"/><use transform="matrix(0.05,0,0,0.05,33,0)" xlink:href="#aX"/><use transform="matrix(0.05,0,0,0.05,43,0)" xlink:href="#aY"/><use transform="matrix(0.05,0,0,0.05,48,0)" xlink:href="#aZ"/><use transform="matrix(0.05,0,0,0.05,51.95,0)" xlink:href="#aY"/><use transform="matrix(0.05,0,0,0.05,56.95,0)" xlink:href="#ba"/><use transform="matrix(0.05,0,0,0.05,65.95,0)" xlink:href="#aV"/><use transform="matrix(0.05,0,0,0.05,76.45,0)" xlink:href="#aV"/></g><path d="M232-93c-1 65-40 97-104 97C67 4 28-28 28-90v-158h33c8 89-33 224 67 224 102 0 64-133 71-224h33v155" id="bb"/><path d="M114-163C36-179 61-72 57 0H25l-1-190h30c1 12-1 29 2 39 6-27 23-49 58-41v29" id="bc"/><g id="c"><use transform="matrix(0.05,0,0,0.05,0,0)" xlink:href="#bb"/><use transform="matrix(0.05,0,0,0.05,12.950000000000001,0)" xlink:href="#aT"/><use transform="matrix(0.05,0,0,0.05,21.950000000000003,0)" xlink:href="#aU"/><use transform="matrix(0.05,0,0,0.05,31.950000000000003,0)" xlink:href="#bc"/></g><path d="M16-82v-28h88v28H16" id="bd"/><use transform="matrix(0.05,0,0,0.05,0,0)" xlink:href="#bd" id="d"/><path d="M141-36C126-15 110 5 73 4 37 3 15-17 15-53c-1-64 63-63 125-63 3-35-9-54-41-54-24 1-41 7-42 31l-33-3c5-37 33-52 76-52 45 0 72 20 72 64v82c-1 20 7 32 28 27v20c-31 9-61-2-59-35zM48-53c0 20 12 33 32 33 41-3 63-29 60-74-43 2-92-5-92 41" id="be"/><path d="M210-169c-67 3-38 105-44 169h-31v-121c0-29-5-50-35-48C34-165 62-65 56 0H25l-1-190h30c1 10-1 24 2 32 10-44 99-50 107 0 11-21 27-35 58-36 85-2 47 119 55 194h-31v-121c0-29-5-49-35-48" id="bf"/><g id="e"><use transform="matrix(0.05,0,0,0.05,0,0)" xlink:href="#aS"/><use transform="matrix(0.05,0,0,0.05,10,0)" xlink:href="#aT"/><use transform="matrix(0.05,0,0,0.05,19,0)" xlink:href="#aU"/><use transform="matrix(0.05,0,0,0.05,29,0)" xlink:href="#bc"/><use transform="matrix(0.05,0,0,0.05,34.95,0)" xlink:href="#aX"/><use transform="matrix(0.05,0,0,0.05,44.95,0)" xlink:href="#be"/><use transform="matrix(0.05,0,0,0.05,54.95,0)" xlink:href="#bf"/><use transform="matrix(0.05,0,0,0.05,69.9,0)" xlink:href="#aU"/></g><path d="M33-154v-36h34v36H33zM33 0v-36h34V0H33" id="bg"/><use transform="matrix(0.05,0,0,0.05,0,0)" xlink:href="#bg" id="f"/><path d="M177-190C167-65 218 103 67 71c-23-6-38-20-44-43l32-5c15 47 100 32 89-28v-30C133-14 115 1 83 1 29 1 15-40 15-95c0-56 16-97 71-98 29-1 48 16 59 35 1-10 0-23 2-32h30zM94-22c36 0 50-32 50-73 0-42-14-75-50-75-39 0-46 34-46 75s6 73 46 73" id="bh"/><g id="g"><use transform="matrix(0.05,0,0,0.05,0,0)" xlink:href="#aT"/><use transform="matrix(0.05,0,0,0.05,9,0)" xlink:href="#aY"/><use transform="matrix(0.05,0,0,0.05,14,0)" xlink:href="#bc"/><use transform="matrix(0.05,0,0,0.05,19.95,0)" xlink:href="#aZ"/><use transform="matrix(0.05,0,0,0.05,23.9,0)" xlink:href="#aX"/><use transform="matrix(0.05,0,0,0.05,33.9,0)" xlink:href="#bh"/></g><path d="M115-194c55 1 70 41 70 98S169 2 115 4C84 4 66-9 55-30l1 105H24l-1-265h31l2 30c10-21 28-34 59-34zm-8 174c40 0 45-34 45-75s-6-73-45-74c-42 0-51 32-51 76 0 43 10 73 51 73" id="bi"/><path d="M206 0h-36l-40-164L89 0H53L-1-190h32L70-26l43-164h34l41 164 42-164h31" id="bj"/><path d="M100-194c62-1 85 37 85 99 1 63-27 99-86 99S16-35 15-95c0-66 28-99 85-99zM99-20c44 1 53-31 53-75 0-43-8-75-51-75s-53 32-53 75 10 74 51 75" id="bk"/><path d="M85-194c31 0 48 13 60 33l-1-100h32l1 261h-30c-2-10 0-23-3-31C134-8 116 4 85 4 32 4 16-35 15-94c0-66 23-100 70-100zm9 24c-40 0-46 34-46 75 0 40 6 74 45 74 42 0 51-32 51-76 0-42-9-74-50-73" id="bl"/><g id="h"><use transform="matrix(0.05,0,0,0.05,0,0)" xlink:href="#bi"/><use transform="matrix(0.05,0,0,0.05,10,0)" xlink:href="#be"/><use transform="matrix(0.05,0,0,0.05,20,0)" xlink:href="#aT"/><use transform="matrix(0.05,0,0,0.05,29,0)" xlink:href="#aT"/><use transform="matrix(0.05,0,0,0.05,38,0)" xlink:href="#bj"/><use transform="matrix(0.05,0,0,0.05,50.95,0)" xlink:href="#bk"/><use transform="matrix(0.05,0,0,0.05,60.95,0)" xlink:href="#bc"/><use transform="matrix(0.05,0,0,0.05,66.9,0)" xlink:href="#bl"/></g><g id="i"><use transform="matrix(0.05,0,0,0.05,0,0)" xlink:href="#aX"/><use transform="matrix(0.05,0,0,0.05,10,0)" xlink:href="#be"/><use transform="matrix(0.05,0,0,0.05,20,0)" xlink:href="#bf"/><use transform="matrix(0.05,0,0,0.05,34.95,0)" xlink:href="#aU"/></g><g id="j"><use transform="matrix(0.05,0,0,0.05,0,0)" xlink:href="#aT"/><use transform="matrix(0.05,0,0,0.05,9,0)" xlink:href="#aS"/><use transform="matrix(0.05,0,0,0.05,19,0)" xlink:href="#bc"/><use transform="matrix(0.05,0,0,0.05,24.95,0)" xlink:href="#aX"/><use transform="matrix(0.05,0,0,0.05,34.95,0)" xlink:href="#be"/><use transform="matrix(0.05,0,0,0.05,44.95,0)" xlink:href="#bf"/><use transform="matrix(0.05,0,0,0.05,59.900000000000006,0)" xlink:href="#aU"/></g><path d="M24 0v-261h32V0H24" id="bm"/><g id="k"><use transform="matrix(0.05,0,0,0.05,0,0)" xlink:href="#aU"/><use transform="matrix(0.05,0,0,0.05,10,0)" xlink:href="#bf"/><use transform="matrix(0.05,0,0,0.05,24.950000000000003,0)" xlink:href="#be"/><use transform="matrix(0.05,0,0,0.05,34.95,0)" xlink:href="#aZ"/><use transform="matrix(0.05,0,0,0.05,38.900000000000006,0)" xlink:href="#bm"/></g><path d="M106-169C34-169 62-67 57 0H25v-261h32l-1 103c12-21 28-36 61-36 89 0 53 116 60 194h-32v-121c2-32-8-49-39-48" id="bn"/><g id="l"><use transform="matrix(0.05,0,0,0.05,0,0)" xlink:href="#bi"/><use transform="matrix(0.05,0,0,0.05,10,0)" xlink:href="#bn"/><use transform="matrix(0.05,0,0,0.05,20,0)" xlink:href="#bk"/><use transform="matrix(0.05,0,0,0.05,30,0)" xlink:href="#aX"/><use transform="matrix(0.05,0,0,0.05,40,0)" xlink:href="#aU"/></g><path d="M96-169c-40 0-48 33-48 73s9 75 48 75c24 0 41-14 43-38l32 2c-6 37-31 61-74 61-59 0-76-41-82-99-10-93 101-131 147-64 4 7 5 14 7 22l-32 3c-4-21-16-35-41-35" id="bo"/><g id="m"><use transform="matrix(0.05,0,0,0.05,0,0)" xlink:href="#aU"/><use transform="matrix(0.05,0,0,0.05,10,0)" xlink:href="#bo"/><use transform="matrix(0.05,0,0,0.05,19,0)" xlink:href="#bk"/><use transform="matrix(0.05,0,0,0.05,29,0)" xlink:href="#bi"/><use transform="matrix(0.05,0,0,0.05,39,0)" xlink:href="#bk"/><use transform="matrix(0.05,0,0,0.05,49,0)" xlink:href="#aZ"/><use transform="matrix(0.05,0,0,0.05,52.95,0)" xlink:href="#aX"/><use transform="matrix(0.05,0,0,0.05,62.95,0)" xlink:href="#aY"/><use transform="matrix(0.05,0,0,0.05,67.95,0)" xlink:href="#aT"/></g><g id="n"><use transform="matrix(0.05,0,0,0.05,0,0)" xlink:href="#aZ"/><use transform="matrix(0.05,0,0,0.05,3.95,0)" xlink:href="#aX"/><use transform="matrix(0.05,0,0,0.05,13.949999999999998,0)" xlink:href="#aY"/></g><path d="M118-107v75H92v-75H18v-26h74v-75h26v75h74v26h-74" id="bp"/><use transform="matrix(0.05,0,0,0.05,0,0)" xlink:href="#bp" id="o"/><g id="p"><use transform="matrix(0.05,0,0,0.05,0,0)" xlink:href="#bh"/><use transform="matrix(0.05,0,0,0.05,10,0)" xlink:href="#aU"/><use transform="matrix(0.05,0,0,0.05,20,0)" xlink:href="#aY"/><use transform="matrix(0.05,0,0,0.05,25,0)" xlink:href="#bb"/><use transform="matrix(0.05,0,0,0.05,37.95,0)" xlink:href="#aT"/><use transform="matrix(0.05,0,0,0.05,46.95,0)" xlink:href="#aU"/><use transform="matrix(0.05,0,0,0.05,56.95,0)" xlink:href="#bc"/><use transform="matrix(0.05,0,0,0.05,62.900000000000006,0)" xlink:href="#aX"/><use transform="matrix(0.05,0,0,0.05,72.9,0)" xlink:href="#be"/><use transform="matrix(0.05,0,0,0.05,82.9,0)" xlink:href="#bf"/><use transform="matrix(0.05,0,0,0.05,97.85000000000001,0)" xlink:href="#aU"/></g><path d="M87 75C49 33 22-17 22-94c0-76 28-126 65-167h31c-38 41-64 92-64 168S80 34 118 75H87" id="bq"/><path d="M33-261c38 41 65 92 65 168S71 34 33 75H2C39 34 66-17 66-93S39-220 2-261h31" id="br"/><g id="q"><use transform="matrix(0.05,0,0,0.05,0,0)" xlink:href="#bq"/><use transform="matrix(0.05,0,0,0.05,5.95,0)" xlink:href="#br"/></g><g id="r"><use transform="matrix(0.05,0,0,0.05,0,0)" xlink:href="#aT"/><use transform="matrix(0.05,0,0,0.05,9,0)" xlink:href="#aU"/><use transform="matrix(0.05,0,0,0.05,19,0)" xlink:href="#aY"/><use transform="matrix(0.05,0,0,0.05,24,0)" xlink:href="#bb"/><use transform="matrix(0.05,0,0,0.05,36.95,0)" xlink:href="#aT"/><use transform="matrix(0.05,0,0,0.05,45.95,0)" xlink:href="#aU"/><use transform="matrix(0.05,0,0,0.05,55.95,0)" xlink:href="#bc"/><use transform="matrix(0.05,0,0,0.05,61.900000000000006,0)" xlink:href="#aX"/><use transform="matrix(0.05,0,0,0.05,71.9,0)" xlink:href="#be"/><use transform="matrix(0.05,0,0,0.05,81.9,0)" xlink:href="#bf"/><use transform="matrix(0.05,0,0,0.05,96.85000000000001,0)" xlink:href="#aU"/></g><g id="s"><use transform="matrix(0.05,0,0,0.05,0,0)" xlink:href="#bq"/><use transform="matrix(0.05,0,0,0.05,5.95,0)" xlink:href="#aZ"/><use transform="matrix(0.05,0,0,0.05,9.9,0)" xlink:href="#aX"/></g><g id="t"><use transform="matrix(0.05,0,0,0.05,0,0)" xlink:href="#aS"/><use transform="matrix(0.05,0,0,0.05,10,0)" xlink:href="#aT"/><use transform="matrix(0.05,0,0,0.05,19,0)" xlink:href="#aU"/><use transform="matrix(0.05,0,0,0.05,29,0)" xlink:href="#bc"/><use transform="matrix(0.05,0,0,0.05,34.95,0)" xlink:href="#aX"/><use transform="matrix(0.05,0,0,0.05,44.95,0)" xlink:href="#be"/><use transform="matrix(0.05,0,0,0.05,54.95,0)" xlink:href="#bf"/><use transform="matrix(0.05,0,0,0.05,69.9,0)" xlink:href="#aU"/><use transform="matrix(0.05,0,0,0.05,79.9,0)" xlink:href="#bg"/><use transform="matrix(0.05,0,0,0.05,84.9,0)" xlink:href="#aT"/><use transform="matrix(0.05,0,0,0.05,93.9,0)" xlink:href="#aY"/><use transform="matrix(0.05,0,0,0.05,98.9,0)" xlink:href="#bc"/><use transform="matrix(0.05,0,0,0.05,104.85000000000001,0)" xlink:href="#aZ"/><use transform="matrix(0.05,0,0,0.05,108.80000000000001,0)" xlink:href="#aX"/><use transform="matrix(0.05,0,0,0.05,118.80000000000001,0)" xlink:href="#bh"/><use transform="matrix(0.05,0,0,0.05,128.8,0)" xlink:href="#br"/></g><path d="M108 0H70L1-190h34L89-25l56-165h34" id="bs"/><g id="u"><use transform="matrix(0.05,0,0,0.05,0,0)" xlink:href="#bs"/><use transform="matrix(0.05,0,0,0.05,9,0)" xlink:href="#bk"/><use transform="matrix(0.05,0,0,0.05,19,0)" xlink:href="#aZ"/><use transform="matrix(0.05,0,0,0.05,22.95,0)" xlink:href="#bl"/></g><path d="M30-248c87 1 191-15 191 75 0 78-77 80-158 76V0H30v-248zm33 125c57 0 124 11 124-50 0-59-68-47-124-48v98" id="bt"/><g id="v"><use transform="matrix(0.05,0,0,0.05,0,0)" xlink:href="#bh"/><use transform="matrix(0.05,0,0,0.05,10,0)" xlink:href="#aU"/><use transform="matrix(0.05,0,0,0.05,20,0)" xlink:href="#aY"/><use transform="matrix(0.05,0,0,0.05,25,0)" xlink:href="#bt"/><use transform="matrix(0.05,0,0,0.05,37,0)" xlink:href="#be"/><use transform="matrix(0.05,0,0,0.05,47,0)" xlink:href="#aT"/><use transform="matrix(0.05,0,0,0.05,56,0)" xlink:href="#aT"/><use transform="matrix(0.05,0,0,0.05,65,0)" xlink:href="#bj"/><use transform="matrix(0.05,0,0,0.05,77.95,0)" xlink:href="#bk"/><use transform="matrix(0.05,0,0,0.05,87.95,0)" xlink:href="#bc"/><use transform="matrix(0.05,0,0,0.05,93.9,0)" xlink:href="#bl"/></g><g id="w"><use transform="matrix(0.05,0,0,0.05,0,0)" xlink:href="#aT"/><use transform="matrix(0.05,0,0,0.05,9,0)" xlink:href="#aU"/><use transform="matrix(0.05,0,0,0.05,19,0)" xlink:href="#aY"/><use transform="matrix(0.05,0,0,0.05,24,0)" xlink:href="#bt"/><use transform="matrix(0.05,0,0,0.05,36,0)" xlink:href="#be"/><use transform="matrix(0.05,0,0,0.05,46,0)" xlink:href="#aT"/><use transform="matrix(0.05,0,0,0.05,55,0)" xlink:href="#aT"/><use transform="matrix(0.05,0,0,0.05,64,0)" xlink:href="#bj"/><use transform="matrix(0.05,0,0,0.05,76.95,0)" xlink:href="#bk"/><use transform="matrix(0.05,0,0,0.05,86.95,0)" xlink:href="#bc"/><use transform="matrix(0.05,0,0,0.05,92.9,0)" xlink:href="#bl"/></g><g id="x"><use transform="matrix(0.05,0,0,0.05,0,0)" xlink:href="#bi"/><use transform="matrix(0.05,0,0,0.05,10,0)" xlink:href="#be"/><use transform="matrix(0.05,0,0,0.05,20,0)" xlink:href="#aT"/><use transform="matrix(0.05,0,0,0.05,29,0)" xlink:href="#aT"/><use transform="matrix(0.05,0,0,0.05,38,0)" xlink:href="#bj"/><use transform="matrix(0.05,0,0,0.05,50.95,0)" xlink:href="#bk"/><use transform="matrix(0.05,0,0,0.05,60.95,0)" xlink:href="#bc"/><use transform="matrix(0.05,0,0,0.05,66.9,0)" xlink:href="#bl"/><use transform="matrix(0.05,0,0,0.05,76.9,0)" xlink:href="#bg"/><use transform="matrix(0.05,0,0,0.05,81.9,0)" xlink:href="#aT"/><use transform="matrix(0.05,0,0,0.05,90.9,0)" xlink:href="#aY"/><use transform="matrix(0.05,0,0,0.05,95.9,0)" xlink:href="#bc"/><use transform="matrix(0.05,0,0,0.05,101.85000000000001,0)" xlink:href="#aZ"/><use transform="matrix(0.05,0,0,0.05,105.80000000000001,0)" xlink:href="#aX"/><use transform="matrix(0.05,0,0,0.05,115.80000000000001,0)" xlink:href="#bh"/><use transform="matrix(0.05,0,0,0.05,125.80000000000001,0)" xlink:href="#br"/></g><path d="M190 0L58-211 59 0H30v-248h39L202-35l-2-213h31V0h-41" id="bu"/><g id="y"><use transform="matrix(0.05,0,0,0.05,0,0)" xlink:href="#bh"/><use transform="matrix(0.05,0,0,0.05,10,0)" xlink:href="#aU"/><use transform="matrix(0.05,0,0,0.05,20,0)" xlink:href="#aY"/><use transform="matrix(0.05,0,0,0.05,25,0)" xlink:href="#bu"/><use transform="matrix(0.05,0,0,0.05,37.95,0)" xlink:href="#be"/><use transform="matrix(0.05,0,0,0.05,47.95,0)" xlink:href="#bf"/><use transform="matrix(0.05,0,0,0.05,62.900000000000006,0)" xlink:href="#aU"/></g><g id="z"><use transform="matrix(0.05,0,0,0.05,0,0)" xlink:href="#aT"/><use transform="matrix(0.05,0,0,0.05,9,0)" xlink:href="#aU"/><use transform="matrix(0.05,0,0,0.05,19,0)" xlink:href="#aY"/><use transform="matrix(0.05,0,0,0.05,24,0)" xlink:href="#bu"/><use transform="matrix(0.05,0,0,0.05,36.95,0)" xlink:href="#be"/><use transform="matrix(0.05,0,0,0.05,46.95,0)" xlink:href="#bf"/><use transform="matrix(0.05,0,0,0.05,61.900000000000006,0)" xlink:href="#aU"/></g><g id="A"><use transform="matrix(0.05,0,0,0.05,0,0)" xlink:href="#aX"/><use transform="matrix(0.05,0,0,0.05,10,0)" xlink:href="#be"/><use transform="matrix(0.05,0,0,0.05,20,0)" xlink:href="#bf"/><use transform="matrix(0.05,0,0,0.05,34.95,0)" xlink:href="#aU"/><use transform="matrix(0.05,0,0,0.05,44.95,0)" xlink:href="#bg"/><use transform="matrix(0.05,0,0,0.05,49.95,0)" xlink:href="#aT"/><use transform="matrix(0.05,0,0,0.05,58.95,0)" xlink:href="#aY"/><use transform="matrix(0.05,0,0,0.05,63.95,0)" xlink:href="#bc"/><use transform="matrix(0.05,0,0,0.05,69.9,0)" xlink:href="#aZ"/><use transform="matrix(0.05,0,0,0.05,73.85000000000001,0)" xlink:href="#aX"/><use transform="matrix(0.05,0,0,0.05,83.85000000000001,0)" xlink:href="#bh"/><use transform="matrix(0.05,0,0,0.05,93.85000000000001,0)" xlink:href="#br"/></g><path d="M185-189c-5-48-123-54-124 2 14 75 158 14 163 119 3 78-121 87-175 55-17-10-28-26-33-46l33-7c5 56 141 63 141-1 0-78-155-14-162-118-5-82 145-84 179-34 5 7 8 16 11 25" id="bv"/><g id="B"><use transform="matrix(0.05,0,0,0.05,0,0)" xlink:href="#bh"/><use transform="matrix(0.05,0,0,0.05,10,0)" xlink:href="#aU"/><use transform="matrix(0.05,0,0,0.05,20,0)" xlink:href="#aY"/><use transform="matrix(0.05,0,0,0.05,25,0)" xlink:href="#bv"/><use transform="matrix(0.05,0,0,0.05,37,0)" xlink:href="#aS"/><use transform="matrix(0.05,0,0,0.05,47,0)" xlink:href="#bc"/><use transform="matrix(0.05,0,0,0.05,52.95,0)" xlink:href="#aX"/><use transform="matrix(0.05,0,0,0.05,62.95,0)" xlink:href="#be"/><use transform="matrix(0.05,0,0,0.05,72.95,0)" xlink:href="#bf"/><use transform="matrix(0.05,0,0,0.05,87.9,0)" xlink:href="#aU"/></g><g id="C"><use transform="matrix(0.05,0,0,0.05,0,0)" xlink:href="#aT"/><use transform="matrix(0.05,0,0,0.05,9,0)" xlink:href="#aU"/><use transform="matrix(0.05,0,0,0.05,19,0)" xlink:href="#aY"/><use transform="matrix(0.05,0,0,0.05,24,0)" xlink:href="#bv"/><use transform="matrix(0.05,0,0,0.05,36,0)" xlink:href="#aS"/><use transform="matrix(0.05,0,0,0.05,46,0)" xlink:href="#bc"/><use transform="matrix(0.05,0,0,0.05,51.95,0)" xlink:href="#aX"/><use transform="matrix(0.05,0,0,0.05,61.95,0)" xlink:href="#be"/><use transform="matrix(0.05,0,0,0.05,71.95,0)" xlink:href="#bf"/><use transform="matrix(0.05,0,0,0.05,86.9,0)" xlink:href="#aU"/></g><g id="D"><use transform="matrix(0.05,0,0,0.05,0,0)" xlink:href="#aT"/><use transform="matrix(0.05,0,0,0.05,9,0)" xlink:href="#aS"/><use transform="matrix(0.05,0,0,0.05,19,0)" xlink:href="#bc"/><use transform="matrix(0.05,0,0,0.05,24.95,0)" xlink:href="#aX"/><use transform="matrix(0.05,0,0,0.05,34.95,0)" xlink:href="#be"/><use transform="matrix(0.05,0,0,0.05,44.95,0)" xlink:href="#bf"/><use transform="matrix(0.05,0,0,0.05,59.900000000000006,0)" xlink:href="#aU"/><use transform="matrix(0.05,0,0,0.05,69.9,0)" xlink:href="#bg"/><use transform="matrix(0.05,0,0,0.05,74.9,0)" xlink:href="#aT"/><use transform="matrix(0.05,0,0,0.05,83.9,0)" xlink:href="#aY"/><use transform="matrix(0.05,0,0,0.05,88.9,0)" xlink:href="#bc"/><use transform="matrix(0.05,0,0,0.05,94.85000000000001,0)" xlink:href="#aZ"/><use transform="matrix(0.05,0,0,0.05,98.80000000000001,0)" xlink:href="#aX"/><use transform="matrix(0.05,0,0,0.05,108.80000000000001,0)" xlink:href="#bh"/><use transform="matrix(0.05,0,0,0.05,118.80000000000001,0)" xlink:href="#br"/></g><g id="E"><use transform="matrix(0.05,0,0,0.05,0,0)" xlink:href="#bh"/><use transform="matrix(0.05,0,0,0.05,10,0)" xlink:href="#aU"/><use transform="matrix(0.05,0,0,0.05,20,0)" xlink:href="#aY"/><use transform="matrix(0.05,0,0,0.05,25,0)" xlink:href="#aW"/><use transform="matrix(0.05,0,0,0.05,37,0)" xlink:href="#bf"/><use transform="matrix(0.05,0,0,0.05,51.95,0)" xlink:href="#be"/><use transform="matrix(0.05,0,0,0.05,61.95,0)" xlink:href="#aZ"/><use transform="matrix(0.05,0,0,0.05,65.9,0)" xlink:href="#bm"/></g><g id="F"><use transform="matrix(0.05,0,0,0.05,0,0)" xlink:href="#aT"/><use transform="matrix(0.05,0,0,0.05,9,0)" xlink:href="#aU"/><use transform="matrix(0.05,0,0,0.05,19,0)" xlink:href="#aY"/><use transform="matrix(0.05,0,0,0.05,24,0)" xlink:href="#aW"/><use transform="matrix(0.05,0,0,0.05,36,0)" xlink:href="#bf"/><use transform="matrix(0.05,0,0,0.05,50.95,0)" xlink:href="#be"/><use transform="matrix(0.05,0,0,0.05,60.95,0)" xlink:href="#aZ"/><use transform="matrix(0.05,0,0,0.05,64.9,0)" xlink:href="#bm"/></g><g id="G"><use transform="matrix(0.05,0,0,0.05,0,0)" xlink:href="#aU"/><use transform="matrix(0.05,0,0,0.05,10,0)" xlink:href="#bf"/><use transform="matrix(0.05,0,0,0.05,24.950000000000003,0)" xlink:href="#be"/><use transform="matrix(0.05,0,0,0.05,34.95,0)" xlink:href="#aZ"/><use transform="matrix(0.05,0,0,0.05,38.900000000000006,0)" xlink:href="#bm"/><use transform="matrix(0.05,0,0,0.05,42.85000000000001,0)" xlink:href="#bg"/><use transform="matrix(0.05,0,0,0.05,47.85000000000001,0)" xlink:href="#aT"/><use transform="matrix(0.05,0,0,0.05,56.85,0)" xlink:href="#aY"/><use transform="matrix(0.05,0,0,0.05,61.85,0)" xlink:href="#bc"/><use transform="matrix(0.05,0,0,0.05,67.80000000000001,0)" xlink:href="#aZ"/><use transform="matrix(0.05,0,0,0.05,71.75000000000001,0)" xlink:href="#aX"/><use transform="matrix(0.05,0,0,0.05,81.75000000000001,0)" xlink:href="#bh"/><use transform="matrix(0.05,0,0,0.05,91.75000000000001,0)" xlink:href="#br"/></g><g id="H"><use transform="matrix(0.05,0,0,0.05,0,0)" xlink:href="#bh"/><use transform="matrix(0.05,0,0,0.05,10,0)" xlink:href="#aU"/><use transform="matrix(0.05,0,0,0.05,20,0)" xlink:href="#aY"/><use transform="matrix(0.05,0,0,0.05,25,0)" xlink:href="#bt"/><use transform="matrix(0.05,0,0,0.05,37,0)" xlink:href="#bn"/><use transform="matrix(0.05,0,0,0.05,47,0)" xlink:href="#bk"/><use transform="matrix(0.05,0,0,0.05,57,0)" xlink:href="#aX"/><use transform="matrix(0.05,0,0,0.05,67,0)" xlink:href="#aU"/><use transform="matrix(0.05,0,0,0.05,77,0)" xlink:href="#bq"/><use transform="matrix(0.05,0,0,0.05,82.95,0)" xlink:href="#br"/></g><g id="I"><use transform="matrix(0.05,0,0,0.05,0,0)" xlink:href="#aT"/><use transform="matrix(0.05,0,0,0.05,9,0)" xlink:href="#aU"/><use transform="matrix(0.05,0,0,0.05,19,0)" xlink:href="#aY"/><use transform="matrix(0.05,0,0,0.05,24,0)" xlink:href="#bt"/><use transform="matrix(0.05,0,0,0.05,36,0)" xlink:href="#bn"/><use transform="matrix(0.05,0,0,0.05,46,0)" xlink:href="#bk"/><use transform="matrix(0.05,0,0,0.05,56,0)" xlink:href="#aX"/><use transform="matrix(0.05,0,0,0.05,66,0)" xlink:href="#aU"/></g><g id="J"><use transform="matrix(0.05,0,0,0.05,0,0)" xlink:href="#bi"/><use transform="matrix(0.05,0,0,0.05,10,0)" xlink:href="#bn"/><use transform="matrix(0.05,0,0,0.05,20,0)" xlink:href="#bk"/><use transform="matrix(0.05,0,0,0.05,30,0)" xlink:href="#aX"/><use transform="matrix(0.05,0,0,0.05,40,0)" xlink:href="#aU"/><use transform="matrix(0.05,0,0,0.05,50,0)" xlink:href="#bg"/><use transform="matrix(0.05,0,0,0.05,55,0)" xlink:href="#aT"/><use transform="matrix(0.05,0,0,0.05,64,0)" xlink:href="#aY"/><use transform="matrix(0.05,0,0,0.05,69,0)" xlink:href="#bc"/><use transform="matrix(0.05,0,0,0.05,74.95,0)" xlink:href="#aZ"/><use transform="matrix(0.05,0,0,0.05,78.9,0)" xlink:href="#aX"/><use transform="matrix(0.05,0,0,0.05,88.9,0)" xlink:href="#bh"/><use transform="matrix(0.05,0,0,0.05,98.9,0)" xlink:href="#br"/></g><g id="K"><use transform="matrix(0.05,0,0,0.05,0,0)" xlink:href="#bh"/><use transform="matrix(0.05,0,0,0.05,10,0)" xlink:href="#aU"/><use transform="matrix(0.05,0,0,0.05,20,0)" xlink:href="#aY"/><use transform="matrix(0.05,0,0,0.05,25,0)" xlink:href="#aW"/><use transform="matrix(0.05,0,0,0.05,37,0)" xlink:href="#bo"/><use transform="matrix(0.05,0,0,0.05,46,0)" xlink:href="#bk"/><use transform="matrix(0.05,0,0,0.05,56,0)" xlink:href="#bi"/><use transform="matrix(0.05,0,0,0.05,66,0)" xlink:href="#bk"/><use transform="matrix(0.05,0,0,0.05,76,0)" xlink:href="#aZ"/><use transform="matrix(0.05,0,0,0.05,79.95,0)" xlink:href="#aX"/><use transform="matrix(0.05,0,0,0.05,89.95,0)" xlink:href="#aY"/><use transform="matrix(0.05,0,0,0.05,94.95,0)" xlink:href="#aT"/></g><g id="L"><use transform="matrix(0.05,0,0,0.05,0,0)" xlink:href="#aZ"/><use transform="matrix(0.05,0,0,0.05,3.95,0)" xlink:href="#aX"/><use transform="matrix(0.05,0,0,0.05,13.949999999999998,0)" xlink:href="#aY"/></g><g id="M"><use transform="matrix(0.05,0,0,0.05,0,0)" xlink:href="#aT"/><use transform="matrix(0.05,0,0,0.05,9,0)" xlink:href="#aU"/><use transform="matrix(0.05,0,0,0.05,19,0)" xlink:href="#aY"/><use transform="matrix(0.05,0,0,0.05,24,0)" xlink:href="#aW"/><use transform="matrix(0.05,0,0,0.05,36,0)" xlink:href="#bo"/><use transform="matrix(0.05,0,0,0.05,45,0)" xlink:href="#bk"/><use transform="matrix(0.05,0,0,0.05,55,0)" xlink:href="#bi"/><use transform="matrix(0.05,0,0,0.05,65,0)" xlink:href="#bk"/><use transform="matrix(0.05,0,0,0.05,75,0)" xlink:href="#aZ"/><use transform="matrix(0.05,0,0,0.05,78.95,0)" xlink:href="#aX"/><use transform="matrix(0.05,0,0,0.05,88.95,0)" xlink:href="#aY"/><use transform="matrix(0.05,0,0,0.05,93.95,0)" xlink:href="#aT"/></g><g id="N"><use transform="matrix(0.05,0,0,0.05,0,0)" xlink:href="#aU"/><use transform="matrix(0.05,0,0,0.05,10,0)" xlink:href="#bo"/><use transform="matrix(0.05,0,0,0.05,19,0)" xlink:href="#bk"/><use transform="matrix(0.05,0,0,0.05,29,0)" xlink:href="#bi"/><use transform="matrix(0.05,0,0,0.05,39,0)" xlink:href="#bk"/><use transform="matrix(0.05,0,0,0.05,49,0)" xlink:href="#aZ"/><use transform="matrix(0.05,0,0,0.05,52.95,0)" xlink:href="#aX"/><use transform="matrix(0.05,0,0,0.05,62.95,0)" xlink:href="#aY"/><use transform="matrix(0.05,0,0,0.05,67.95,0)" xlink:href="#aT"/><use transform="matrix(0.05,0,0,0.05,76.95,0)" xlink:href="#bg"/><use transform="matrix(0.05,0,0,0.05,81.95,0)" xlink:href="#aZ"/><use transform="matrix(0.05,0,0,0.05,85.9,0)" xlink:href="#aX"/><use transform="matrix(0.05,0,0,0.05,95.9,0)" xlink:href="#aY"/><use transform="matrix(0.05,0,0,0.05,100.9,0)" xlink:href="#br"/></g><g id="O"><use transform="matrix(0.05,0,0,0.05,0,0)" xlink:href="#bs"/><use transform="matrix(0.05,0,0,0.05,9,0)" xlink:href="#bk"/><use transform="matrix(0.05,0,0,0.05,19,0)" xlink:href="#aZ"/><use transform="matrix(0.05,0,0,0.05,22.95,0)" xlink:href="#bl"/></g><path d="M160-131c35 5 61 23 61 61C221 17 115-2 30 0v-248c76 3 177-17 177 60 0 33-19 50-47 57zm-97-11c50-1 110 9 110-42 0-47-63-36-110-37v79zm0 115c55-2 124 14 124-45 0-56-70-42-124-44v89" id="bw"/><g id="P"><use transform="matrix(0.05,0,0,0.05,0,0)" xlink:href="#aR"/><use transform="matrix(0.05,0,0,0.05,10.5,0)" xlink:href="#aR"/><use transform="matrix(0.05,0,0,0.05,21,0)" xlink:href="#bw"/><use transform="matrix(0.05,0,0,0.05,33,0)" xlink:href="#aU"/><use transform="matrix(0.05,0,0,0.05,43,0)" xlink:href="#be"/><use transform="matrix(0.05,0,0,0.05,53,0)" xlink:href="#aX"/><use transform="matrix(0.05,0,0,0.05,63,0)" xlink:href="#aV"/><use transform="matrix(0.05,0,0,0.05,73.5,0)" xlink:href="#aV"/></g><g id="Q"><use transform="matrix(0.05,0,0,0.05,0,0)" xlink:href="#bb"/><use transform="matrix(0.05,0,0,0.05,12.950000000000001,0)" xlink:href="#aT"/><use transform="matrix(0.05,0,0,0.05,21.950000000000003,0)" xlink:href="#aU"/><use transform="matrix(0.05,0,0,0.05,31.950000000000003,0)" xlink:href="#bc"/><use transform="matrix(0.05,0,0,0.05,37.900000000000006,0)" xlink:href="#bw"/><use transform="matrix(0.05,0,0,0.05,49.900000000000006,0)" xlink:href="#aU"/><use transform="matrix(0.05,0,0,0.05,59.900000000000006,0)" xlink:href="#be"/><use transform="matrix(0.05,0,0,0.05,69.9,0)" xlink:href="#aX"/></g><path d="M9 0v-24l116-142H16v-24h144v24L44-24h123V0H9" id="bx"/><g id="R"><use transform="matrix(0.05,0,0,0.05,0,0)" xlink:href="#bt"/><use transform="matrix(0.05,0,0,0.05,12,0)" xlink:href="#bc"/><use transform="matrix(0.05,0,0,0.05,17.95,0)" xlink:href="#aZ"/><use transform="matrix(0.05,0,0,0.05,21.9,0)" xlink:href="#bx"/><use transform="matrix(0.05,0,0,0.05,30.899999999999995,0)" xlink:href="#aU"/></g><g id="S"><use transform="matrix(0.05,0,0,0.05,0,0)" xlink:href="#aT"/><use transform="matrix(0.05,0,0,0.05,9,0)" xlink:href="#aY"/><use transform="matrix(0.05,0,0,0.05,14,0)" xlink:href="#bc"/><use transform="matrix(0.05,0,0,0.05,19.95,0)" xlink:href="#aZ"/><use transform="matrix(0.05,0,0,0.05,23.9,0)" xlink:href="#aX"/><use transform="matrix(0.05,0,0,0.05,33.9,0)" xlink:href="#bh"/></g><g id="T"><use transform="matrix(0.05,0,0,0.05,0,0)" xlink:href="#bo"/><use transform="matrix(0.05,0,0,0.05,9,0)" xlink:href="#bk"/><use transform="matrix(0.05,0,0,0.05,19,0)" xlink:href="#aT"/><use transform="matrix(0.05,0,0,0.05,28,0)" xlink:href="#aY"/></g><g id="U"><use transform="matrix(0.05,0,0,0.05,0,0)" xlink:href="#bh"/><use transform="matrix(0.05,0,0,0.05,10,0)" xlink:href="#aU"/><use transform="matrix(0.05,0,0,0.05,20,0)" xlink:href="#aY"/><use transform="matrix(0.05,0,0,0.05,25,0)" xlink:href="#bu"/><use transform="matrix(0.05,0,0,0.05,37.95,0)" xlink:href="#be"/><use transform="matrix(0.05,0,0,0.05,47.95,0)" xlink:href="#bf"/><use transform="matrix(0.05,0,0,0.05,62.900000000000006,0)" xlink:href="#aU"/><use transform="matrix(0.05,0,0,0.05,72.9,0)" xlink:href="#bq"/><use transform="matrix(0.05,0,0,0.05,78.85000000000001,0)" xlink:href="#br"/></g><path d="M212-179c-10-28-35-45-73-45-59 0-87 40-87 99 0 60 29 101 89 101 43 0 62-24 78-52l27 14C228-24 195 4 139 4 59 4 22-46 18-125c-6-104 99-153 187-111 19 9 31 26 39 46" id="by"/><g id="V"><use transform="matrix(0.05,0,0,0.05,0,0)" xlink:href="#bh"/><use transform="matrix(0.05,0,0,0.05,10,0)" xlink:href="#aU"/><use transform="matrix(0.05,0,0,0.05,20,0)" xlink:href="#aY"/><use transform="matrix(0.05,0,0,0.05,25,0)" xlink:href="#by"/><use transform="matrix(0.05,0,0,0.05,37.95,0)" xlink:href="#bk"/><use transform="matrix(0.05,0,0,0.05,47.95,0)" xlink:href="#aT"/><use transform="matrix(0.05,0,0,0.05,56.95,0)" xlink:href="#aY"/></g><g id="W"><use transform="matrix(0.05,0,0,0.05,0,0)" xlink:href="#aT"/><use transform="matrix(0.05,0,0,0.05,9,0)" xlink:href="#aU"/><use transform="matrix(0.05,0,0,0.05,19,0)" xlink:href="#aY"/><use transform="matrix(0.05,0,0,0.05,24,0)" xlink:href="#by"/><use transform="matrix(0.05,0,0,0.05,36.95,0)" xlink:href="#bk"/><use transform="matrix(0.05,0,0,0.05,46.95,0)" xlink:href="#aT"/><use transform="matrix(0.05,0,0,0.05,55.95,0)" xlink:href="#aY"/></g><g id="X"><use transform="matrix(0.05,0,0,0.05,0,0)" xlink:href="#bo"/><use transform="matrix(0.05,0,0,0.05,9,0)" xlink:href="#bk"/><use transform="matrix(0.05,0,0,0.05,19,0)" xlink:href="#aT"/><use transform="matrix(0.05,0,0,0.05,28,0)" xlink:href="#aY"/><use transform="matrix(0.05,0,0,0.05,33,0)" xlink:href="#bg"/><use transform="matrix(0.05,0,0,0.05,38,0)" xlink:href="#aZ"/><use transform="matrix(0.05,0,0,0.05,41.95,0)" xlink:href="#aX"/><use transform="matrix(0.05,0,0,0.05,51.95,0)" xlink:href="#aY"/><use transform="matrix(0.05,0,0,0.05,56.95,0)" xlink:href="#br"/></g><g id="Y"><use transform="matrix(0.05,0,0,0.05,0,0)" xlink:href="#aR"/><use transform="matrix(0.05,0,0,0.05,10.5,0)" xlink:href="#aR"/><use transform="matrix(0.05,0,0,0.05,21,0)" xlink:href="#bw"/><use transform="matrix(0.05,0,0,0.05,33,0)" xlink:href="#bk"/><use transform="matrix(0.05,0,0,0.05,43,0)" xlink:href="#aS"/><use transform="matrix(0.05,0,0,0.05,53,0)" xlink:href="#aX"/><use transform="matrix(0.05,0,0,0.05,63,0)" xlink:href="#bl"/><use transform="matrix(0.05,0,0,0.05,73,0)" xlink:href="#be"/><use transform="matrix(0.05,0,0,0.05,83,0)" xlink:href="#bc"/><use transform="matrix(0.05,0,0,0.05,88.95,0)" xlink:href="#ba"/><use transform="matrix(0.05,0,0,0.05,97.95,0)" xlink:href="#aV"/><use transform="matrix(0.05,0,0,0.05,108.45,0)" xlink:href="#aV"/></g><g id="Z"><use transform="matrix(0.05,0,0,0.05,0,0)" xlink:href="#bv"/><use transform="matrix(0.05,0,0,0.05,12,0)" xlink:href="#bn"/><use transform="matrix(0.05,0,0,0.05,22,0)" xlink:href="#bk"/><use transform="matrix(0.05,0,0,0.05,32,0)" xlink:href="#bi"/></g><path d="M115-194c53 0 69 39 70 98 0 66-23 100-70 100C84 3 66-7 56-30L54 0H23l1-261h32v101c10-23 28-34 59-34zm-8 174c40 0 45-34 45-75 0-40-5-75-45-74-42 0-51 32-51 76 0 43 10 73 51 73" id="bz"/><path d="M33 0v-248h34V0H33" id="bA"/><path d="M143 0L79-87 56-68V0H24v-261h32v163l83-92h37l-77 82L181 0h-38" id="bB"/><g id="aa"><use transform="matrix(0.05,0,0,0.05,0,0)" xlink:href="#bz"/><use transform="matrix(0.05,0,0,0.05,10,0)" xlink:href="#aS"/><use transform="matrix(0.05,0,0,0.05,20,0)" xlink:href="#ba"/><use transform="matrix(0.05,0,0,0.05,29,0)" xlink:href="#bA"/><use transform="matrix(0.05,0,0,0.05,34,0)" xlink:href="#aY"/><use transform="matrix(0.05,0,0,0.05,39,0)" xlink:href="#aU"/><use transform="matrix(0.05,0,0,0.05,49,0)" xlink:href="#bf"/><use transform="matrix(0.05,0,0,0.05,63.95,0)" xlink:href="#by"/><use transform="matrix(0.05,0,0,0.05,76.9,0)" xlink:href="#bm"/><use transform="matrix(0.05,0,0,0.05,80.85000000000001,0)" xlink:href="#aZ"/><use transform="matrix(0.05,0,0,0.05,84.80000000000001,0)" xlink:href="#bo"/><use transform="matrix(0.05,0,0,0.05,93.80000000000001,0)" xlink:href="#bB"/></g><g id="ab"><use transform="matrix(0.05,0,0,0.05,0,0)" xlink:href="#aR"/><use transform="matrix(0.05,0,0,0.05,10.5,0)" xlink:href="#aR"/><use transform="matrix(0.05,0,0,0.05,21,0)" xlink:href="#by"/><use transform="matrix(0.05,0,0,0.05,33.95,0)" xlink:href="#bk"/><use transform="matrix(0.05,0,0,0.05,43.95,0)" xlink:href="#aX"/><use transform="matrix(0.05,0,0,0.05,53.95,0)" xlink:href="#aY"/><use transform="matrix(0.05,0,0,0.05,58.95,0)" xlink:href="#bc"/><use transform="matrix(0.05,0,0,0.05,64.9,0)" xlink:href="#bk"/><use transform="matrix(0.05,0,0,0.05,74.9,0)" xlink:href="#bm"/><use transform="matrix(0.05,0,0,0.05,78.85000000000001,0)" xlink:href="#aV"/><use transform="matrix(0.05,0,0,0.05,89.35000000000001,0)" xlink:href="#aV"/></g><g id="ac"><use transform="matrix(0.05,0,0,0.05,0,0)" xlink:href="#bv"/><use transform="matrix(0.05,0,0,0.05,12,0)" xlink:href="#bn"/><use transform="matrix(0.05,0,0,0.05,22,0)" xlink:href="#bk"/><use transform="matrix(0.05,0,0,0.05,32,0)" xlink:href="#bi"/><use transform="matrix(0.05,0,0,0.05,42,0)" xlink:href="#by"/><use transform="matrix(0.05,0,0,0.05,54.95,0)" xlink:href="#bk"/><use transform="matrix(0.05,0,0,0.05,64.95,0)" xlink:href="#aX"/><use transform="matrix(0.05,0,0,0.05,74.95,0)" xlink:href="#aY"/><use transform="matrix(0.05,0,0,0.05,79.95,0)" xlink:href="#bc"/><use transform="matrix(0.05,0,0,0.05,85.9,0)" xlink:href="#bk"/><use transform="matrix(0.05,0,0,0.05,95.9,0)" xlink:href="#bm"/></g><g id="ad"><use transform="matrix(0.05,0,0,0.05,0,0)" xlink:href="#bz"/><use transform="matrix(0.05,0,0,0.05,10,0)" xlink:href="#aS"/><use transform="matrix(0.05,0,0,0.05,20,0)" xlink:href="#ba"/><use transform="matrix(0.05,0,0,0.05,29,0)" xlink:href="#bA"/><use transform="matrix(0.05,0,0,0.05,34,0)" xlink:href="#aY"/><use transform="matrix(0.05,0,0,0.05,39,0)" xlink:href="#aU"/><use transform="matrix(0.05,0,0,0.05,49,0)" xlink:href="#bf"/></g><path d="M101-234c-31-9-42 10-38 44h38v23H63V0H32v-167H5v-23h27c-7-52 17-82 69-68v24" id="bC"/><g id="ae"><use transform="matrix(0.05,0,0,0.05,0,0)" xlink:href="#bs"/><use transform="matrix(0.05,0,0,0.05,9,0)" xlink:href="#aU"/><use transform="matrix(0.05,0,0,0.05,19,0)" xlink:href="#bc"/><use transform="matrix(0.05,0,0,0.05,24.95,0)" xlink:href="#aZ"/><use transform="matrix(0.05,0,0,0.05,28.899999999999995,0)" xlink:href="#bC"/><use transform="matrix(0.05,0,0,0.05,33.9,0)" xlink:href="#ba"/><use transform="matrix(0.05,0,0,0.05,42.9,0)" xlink:href="#aW"/><use transform="matrix(0.05,0,0,0.05,54.900000000000006,0)" xlink:href="#bo"/><use transform="matrix(0.05,0,0,0.05,63.900000000000006,0)" xlink:href="#bk"/><use transform="matrix(0.05,0,0,0.05,73.9,0)" xlink:href="#bt"/><use transform="matrix(0.05,0,0,0.05,85.9,0)" xlink:href="#bk"/><use transform="matrix(0.05,0,0,0.05,95.9,0)" xlink:href="#aZ"/><use transform="matrix(0.05,0,0,0.05,99.85000000000001,0)" xlink:href="#aX"/><use transform="matrix(0.05,0,0,0.05,109.85000000000001,0)" xlink:href="#aY"/><use transform="matrix(0.05,0,0,0.05,114.85000000000001,0)" xlink:href="#aT"/></g><g id="af"><use transform="matrix(0.05,0,0,0.05,0,0)" xlink:href="#bz"/><use transform="matrix(0.05,0,0,0.05,10,0)" xlink:href="#bk"/><use transform="matrix(0.05,0,0,0.05,20,0)" xlink:href="#bk"/><use transform="matrix(0.05,0,0,0.05,30,0)" xlink:href="#bm"/><use transform="matrix(0.05,0,0,0.05,33.95,0)" xlink:href="#aU"/><use transform="matrix(0.05,0,0,0.05,43.95,0)" xlink:href="#be"/><use transform="matrix(0.05,0,0,0.05,53.95,0)" xlink:href="#aX"/></g><g id="ag"><use transform="matrix(0.05,0,0,0.05,0,0)" xlink:href="#aS"/><use transform="matrix(0.05,0,0,0.05,10,0)" xlink:href="#bi"/><use transform="matrix(0.05,0,0,0.05,20,0)" xlink:href="#bl"/><use transform="matrix(0.05,0,0,0.05,30,0)" xlink:href="#be"/><use transform="matrix(0.05,0,0,0.05,40,0)" xlink:href="#aY"/><use transform="matrix(0.05,0,0,0.05,45,0)" xlink:href="#aU"/><use transform="matrix(0.05,0,0,0.05,55,0)" xlink:href="#aW"/><use transform="matrix(0.05,0,0,0.05,67,0)" xlink:href="#bo"/><use transform="matrix(0.05,0,0,0.05,76,0)" xlink:href="#bk"/><use transform="matrix(0.05,0,0,0.05,86,0)" xlink:href="#bt"/><use transform="matrix(0.05,0,0,0.05,98,0)" xlink:href="#bk"/><use transform="matrix(0.05,0,0,0.05,108,0)" xlink:href="#aZ"/><use transform="matrix(0.05,0,0,0.05,111.95,0)" xlink:href="#aX"/><use transform="matrix(0.05,0,0,0.05,121.95,0)" xlink:href="#aY"/><use transform="matrix(0.05,0,0,0.05,126.95,0)" xlink:href="#aT"/></g><path d="M30 0v-248h33v221h125V0H30" id="bD"/><g id="ah"><use transform="matrix(0.05,0,0,0.05,0,0)" xlink:href="#bD"/><use transform="matrix(0.05,0,0,0.05,10,0)" xlink:href="#bk"/><use transform="matrix(0.05,0,0,0.05,20,0)" xlink:href="#bh"/><use transform="matrix(0.05,0,0,0.05,30,0)" xlink:href="#aZ"/><use transform="matrix(0.05,0,0,0.05,33.95,0)" xlink:href="#aX"/><use transform="matrix(0.05,0,0,0.05,43.95,0)" xlink:href="#by"/><use transform="matrix(0.05,0,0,0.05,56.900000000000006,0)" xlink:href="#bk"/><use transform="matrix(0.05,0,0,0.05,66.9,0)" xlink:href="#aX"/><use transform="matrix(0.05,0,0,0.05,76.9,0)" xlink:href="#aY"/><use transform="matrix(0.05,0,0,0.05,81.9,0)" xlink:href="#bc"/><use transform="matrix(0.05,0,0,0.05,87.85000000000001,0)" xlink:href="#bk"/><use transform="matrix(0.05,0,0,0.05,97.85000000000001,0)" xlink:href="#bm"/><use transform="matrix(0.05,0,0,0.05,101.80000000000001,0)" xlink:href="#bm"/><use transform="matrix(0.05,0,0,0.05,105.75,0)" xlink:href="#aU"/><use transform="matrix(0.05,0,0,0.05,115.75,0)" xlink:href="#bc"/></g><use transform="matrix(0.05,0,0,0.05,0,0)" xlink:href="#bp" id="ai"/><g id="aj"><use transform="matrix(0.05,0,0,0.05,0,0)" xlink:href="#bm"/><use transform="matrix(0.05,0,0,0.05,3.95,0)" xlink:href="#bk"/><use transform="matrix(0.05,0,0,0.05,13.949999999999998,0)" xlink:href="#bh"/><use transform="matrix(0.05,0,0,0.05,23.95,0)" xlink:href="#aZ"/><use transform="matrix(0.05,0,0,0.05,27.899999999999995,0)" xlink:href="#aX"/></g><g id="ak"><use transform="matrix(0.05,0,0,0.05,0,0)" xlink:href="#bq"/><use transform="matrix(0.05,0,0,0.05,5.95,0)" xlink:href="#aZ"/><use transform="matrix(0.05,0,0,0.05,9.9,0)" xlink:href="#aX"/></g><g id="al"><use transform="matrix(0.05,0,0,0.05,0,0)" xlink:href="#aS"/><use transform="matrix(0.05,0,0,0.05,10,0)" xlink:href="#aT"/><use transform="matrix(0.05,0,0,0.05,19,0)" xlink:href="#aU"/><use transform="matrix(0.05,0,0,0.05,29,0)" xlink:href="#bc"/><use transform="matrix(0.05,0,0,0.05,34.95,0)" xlink:href="#aX"/><use transform="matrix(0.05,0,0,0.05,44.95,0)" xlink:href="#be"/><use transform="matrix(0.05,0,0,0.05,54.95,0)" xlink:href="#bf"/><use transform="matrix(0.05,0,0,0.05,69.9,0)" xlink:href="#aU"/><use transform="matrix(0.05,0,0,0.05,79.9,0)" xlink:href="#bg"/></g><path d="M68-38c1 34 0 65-14 84H32c9-13 17-26 17-46H33v-38h35" id="bE"/><g id="am"><use transform="matrix(0.05,0,0,0.05,0,0)" xlink:href="#aT"/><use transform="matrix(0.05,0,0,0.05,9,0)" xlink:href="#aY"/><use transform="matrix(0.05,0,0,0.05,14,0)" xlink:href="#bc"/><use transform="matrix(0.05,0,0,0.05,19.95,0)" xlink:href="#aZ"/><use transform="matrix(0.05,0,0,0.05,23.9,0)" xlink:href="#aX"/><use transform="matrix(0.05,0,0,0.05,33.9,0)" xlink:href="#bh"/><use transform="matrix(0.05,0,0,0.05,43.9,0)" xlink:href="#bE"/></g><g id="an"><use transform="matrix(0.05,0,0,0.05,0,0)" xlink:href="#aZ"/><use transform="matrix(0.05,0,0,0.05,3.95,0)" xlink:href="#aX"/></g><g id="ao"><use transform="matrix(0.05,0,0,0.05,0,0)" xlink:href="#bi"/><use transform="matrix(0.05,0,0,0.05,10,0)" xlink:href="#be"/><use transform="matrix(0.05,0,0,0.05,20,0)" xlink:href="#aT"/><use transform="matrix(0.05,0,0,0.05,29,0)" xlink:href="#aT"/><use transform="matrix(0.05,0,0,0.05,38,0)" xlink:href="#bj"/><use transform="matrix(0.05,0,0,0.05,50.95,0)" xlink:href="#bk"/><use transform="matrix(0.05,0,0,0.05,60.95,0)" xlink:href="#bc"/><use transform="matrix(0.05,0,0,0.05,66.9,0)" xlink:href="#bl"/><use transform="matrix(0.05,0,0,0.05,76.9,0)" xlink:href="#bg"/></g><g id="ap"><use transform="matrix(0.05,0,0,0.05,0,0)" xlink:href="#aT"/><use transform="matrix(0.05,0,0,0.05,9,0)" xlink:href="#aY"/><use transform="matrix(0.05,0,0,0.05,14,0)" xlink:href="#bc"/><use transform="matrix(0.05,0,0,0.05,19.95,0)" xlink:href="#aZ"/><use transform="matrix(0.05,0,0,0.05,23.9,0)" xlink:href="#aX"/><use transform="matrix(0.05,0,0,0.05,33.9,0)" xlink:href="#bh"/><use transform="matrix(0.05,0,0,0.05,43.9,0)" xlink:href="#br"/></g><path d="M233-177c-1 41-23 64-60 70L243 0h-38l-65-103H63V0H30v-248c88 3 205-21 203 71zM63-129c60-2 137 13 137-47 0-61-80-42-137-45v92" id="bF"/><g id="aq"><use transform="matrix(0.05,0,0,0.05,0,0)" xlink:href="#bo"/><use transform="matrix(0.05,0,0,0.05,9,0)" xlink:href="#bn"/><use transform="matrix(0.05,0,0,0.05,19,0)" xlink:href="#aU"/><use transform="matrix(0.05,0,0,0.05,29,0)" xlink:href="#bo"/><use transform="matrix(0.05,0,0,0.05,38,0)" xlink:href="#bB"/><use transform="matrix(0.05,0,0,0.05,47,0)" xlink:href="#bF"/><use transform="matrix(0.05,0,0,0.05,59.95,0)" xlink:href="#aU"/><use transform="matrix(0.05,0,0,0.05,69.95,0)" xlink:href="#bh"/><use transform="matrix(0.05,0,0,0.05,79.95,0)" xlink:href="#aZ"/><use transform="matrix(0.05,0,0,0.05,83.9,0)" xlink:href="#aT"/><use transform="matrix(0.05,0,0,0.05,92.9,0)" xlink:href="#aY"/><use transform="matrix(0.05,0,0,0.05,97.9,0)" xlink:href="#bc"/><use transform="matrix(0.05,0,0,0.05,103.85000000000001,0)" xlink:href="#be"/><use transform="matrix(0.05,0,0,0.05,113.85000000000001,0)" xlink:href="#aY"/><use transform="matrix(0.05,0,0,0.05,118.85000000000001,0)" xlink:href="#aZ"/><use transform="matrix(0.05,0,0,0.05,122.80000000000001,0)" xlink:href="#bk"/><use transform="matrix(0.05,0,0,0.05,132.8,0)" xlink:href="#aX"/></g><g id="ar"><use transform="matrix(0.05,0,0,0.05,0,0)" xlink:href="#aT"/><use transform="matrix(0.05,0,0,0.05,9,0)" xlink:href="#aY"/><use transform="matrix(0.05,0,0,0.05,14,0)" xlink:href="#bc"/><use transform="matrix(0.05,0,0,0.05,19.95,0)" xlink:href="#aZ"/><use transform="matrix(0.05,0,0,0.05,23.9,0)" xlink:href="#aX"/><use transform="matrix(0.05,0,0,0.05,33.9,0)" xlink:href="#bh"/><use transform="matrix(0.05,0,0,0.05,43.9,0)" xlink:href="#br"/></g><path d="M30-248c118-7 216 8 213 122C240-48 200 0 122 0H30v-248zM63-27c89 8 146-16 146-99s-60-101-146-95v194" id="bG"/><path d="M205 0l-28-72H64L36 0H1l101-248h38L239 0h-34zm-38-99l-47-123c-12 45-31 82-46 123h93" id="bH"/><path d="M140-251c81 0 123 46 123 126C263-46 219 4 140 4 59 4 17-45 17-125s42-126 123-126zm0 227c63 0 89-41 89-101s-29-99-89-99c-61 0-89 39-89 99S79-25 140-24" id="bI"/><g id="as"><use transform="matrix(0.05,0,0,0.05,0,0)" xlink:href="#bb"/><use transform="matrix(0.05,0,0,0.05,12.950000000000001,0)" xlink:href="#aT"/><use transform="matrix(0.05,0,0,0.05,21.950000000000003,0)" xlink:href="#aU"/><use transform="matrix(0.05,0,0,0.05,31.950000000000003,0)" xlink:href="#bc"/><use transform="matrix(0.05,0,0,0.05,37.900000000000006,0)" xlink:href="#bG"/><use transform="matrix(0.05,0,0,0.05,50.85000000000001,0)" xlink:href="#bH"/><use transform="matrix(0.05,0,0,0.05,62.85,0)" xlink:href="#bI"/></g><use transform="matrix(0.05,0,0,0.05,0,0)" xlink:href="#bd" id="at"/><g id="au"><use transform="matrix(0.05,0,0,0.05,0,0)" xlink:href="#bb"/><use transform="matrix(0.05,0,0,0.05,12.950000000000001,0)" xlink:href="#bv"/><use transform="matrix(0.05,0,0,0.05,24.950000000000003,0)" xlink:href="#aW"/><use transform="matrix(0.05,0,0,0.05,36.95,0)" xlink:href="#bF"/></g><use transform="matrix(0.05,0,0,0.05,0,0)" xlink:href="#bg" id="av"/><g id="aw"><use transform="matrix(0.05,0,0,0.05,0,0)" xlink:href="#aT"/><use transform="matrix(0.05,0,0,0.05,9,0)" xlink:href="#aY"/><use transform="matrix(0.05,0,0,0.05,14,0)" xlink:href="#bc"/><use transform="matrix(0.05,0,0,0.05,19.95,0)" xlink:href="#aZ"/><use transform="matrix(0.05,0,0,0.05,23.9,0)" xlink:href="#aX"/><use transform="matrix(0.05,0,0,0.05,33.9,0)" xlink:href="#bh"/></g><g id="ax"><use transform="matrix(0.05,0,0,0.05,0,0)" xlink:href="#bt"/><use transform="matrix(0.05,0,0,0.05,10.65,0)" xlink:href="#bH"/><use transform="matrix(0.05,0,0,0.05,22.65,0)" xlink:href="#bv"/><use transform="matrix(0.05,0,0,0.05,34.65,0)" xlink:href="#bv"/></g><path d="M-5 72V49h209v23H-5" id="bJ"/><g id="ay"><use transform="matrix(0.05,0,0,0.05,0,0)" xlink:href="#bG"/><use transform="matrix(0.05,0,0,0.05,12.950000000000001,0)" xlink:href="#bw"/><use transform="matrix(0.05,0,0,0.05,24.950000000000003,0)" xlink:href="#bJ"/><use transform="matrix(0.05,0,0,0.05,34.95,0)" xlink:href="#bb"/><use transform="matrix(0.05,0,0,0.05,47.900000000000006,0)" xlink:href="#bF"/><use transform="matrix(0.05,0,0,0.05,60.85,0)" xlink:href="#bD"/></g><path d="M137 0h-34L2-248h35l83 218 83-218h36" id="bK"/><path d="M240 0l2-218c-23 76-54 145-80 218h-23L58-218 59 0H30v-248h44l77 211c21-75 51-140 76-211h43V0h-30" id="bL"/><g id="az"><use transform="matrix(0.05,0,0,0.05,0,0)" xlink:href="#bG"/><use transform="matrix(0.05,0,0,0.05,12.950000000000001,0)" xlink:href="#bF"/><use transform="matrix(0.05,0,0,0.05,25.900000000000002,0)" xlink:href="#bA"/><use transform="matrix(0.05,0,0,0.05,30.900000000000002,0)" xlink:href="#bK"/><use transform="matrix(0.05,0,0,0.05,42.900000000000006,0)" xlink:href="#aW"/><use transform="matrix(0.05,0,0,0.05,54.900000000000006,0)" xlink:href="#bF"/><use transform="matrix(0.05,0,0,0.05,67.85000000000001,0)" xlink:href="#bJ"/><use transform="matrix(0.05,0,0,0.05,77.85000000000001,0)" xlink:href="#by"/><use transform="matrix(0.05,0,0,0.05,90.80000000000001,0)" xlink:href="#bD"/><use transform="matrix(0.05,0,0,0.05,100.80000000000001,0)" xlink:href="#bH"/><use transform="matrix(0.05,0,0,0.05,112.80000000000001,0)" xlink:href="#bv"/><use transform="matrix(0.05,0,0,0.05,124.80000000000001,0)" xlink:href="#bv"/><use transform="matrix(0.05,0,0,0.05,136.8,0)" xlink:href="#bJ"/><use transform="matrix(0.05,0,0,0.05,146.8,0)" xlink:href="#bu"/><use transform="matrix(0.05,0,0,0.05,159.75,0)" xlink:href="#bH"/><use transform="matrix(0.05,0,0,0.05,171.75,0)" xlink:href="#bL"/><use transform="matrix(0.05,0,0,0.05,186.7,0)" xlink:href="#aW"/></g><g id="aA"><use transform="matrix(0.05,0,0,0.05,0,0)" xlink:href="#aT"/><use transform="matrix(0.05,0,0,0.05,9,0)" xlink:href="#aY"/><use transform="matrix(0.05,0,0,0.05,14,0)" xlink:href="#bc"/><use transform="matrix(0.05,0,0,0.05,19.95,0)" xlink:href="#aZ"/><use transform="matrix(0.05,0,0,0.05,23.9,0)" xlink:href="#aX"/><use transform="matrix(0.05,0,0,0.05,33.9,0)" xlink:href="#bh"/></g><g id="aB"><use transform="matrix(0.05,0,0,0.05,0,0)" xlink:href="#bo"/><use transform="matrix(0.05,0,0,0.05,9,0)" xlink:href="#bn"/><use transform="matrix(0.05,0,0,0.05,19,0)" xlink:href="#aU"/><use transform="matrix(0.05,0,0,0.05,29,0)" xlink:href="#bo"/><use transform="matrix(0.05,0,0,0.05,38,0)" xlink:href="#bB"/><use transform="matrix(0.05,0,0,0.05,47,0)" xlink:href="#bb"/><use transform="matrix(0.05,0,0,0.05,59.95,0)" xlink:href="#aT"/><use transform="matrix(0.05,0,0,0.05,68.95,0)" xlink:href="#aU"/><use transform="matrix(0.05,0,0,0.05,78.95,0)" xlink:href="#bc"/><use transform="matrix(0.05,0,0,0.05,84.9,0)" xlink:href="#aX"/><use transform="matrix(0.05,0,0,0.05,94.9,0)" xlink:href="#be"/><use transform="matrix(0.05,0,0,0.05,104.9,0)" xlink:href="#bf"/><use transform="matrix(0.05,0,0,0.05,119.85000000000001,0)" xlink:href="#aU"/></g><g id="aC"><use transform="matrix(0.05,0,0,0.05,0,0)" xlink:href="#aS"/><use transform="matrix(0.05,0,0,0.05,10,0)" xlink:href="#aT"/><use transform="matrix(0.05,0,0,0.05,19,0)" xlink:href="#aU"/><use transform="matrix(0.05,0,0,0.05,29,0)" xlink:href="#bc"/><use transform="matrix(0.05,0,0,0.05,34.95,0)" xlink:href="#aX"/><use transform="matrix(0.05,0,0,0.05,44.95,0)" xlink:href="#be"/><use transform="matrix(0.05,0,0,0.05,54.95,0)" xlink:href="#bf"/><use transform="matrix(0.05,0,0,0.05,69.9,0)" xlink:href="#aU"/><use transform="matrix(0.05,0,0,0.05,79.9,0)" xlink:href="#bg"/><use transform="matrix(0.05,0,0,0.05,84.9,0)" xlink:href="#aT"/><use transform="matrix(0.05,0,0,0.05,93.9,0)" xlink:href="#aY"/><use transform="matrix(0.05,0,0,0.05,98.9,0)" xlink:href="#bc"/><use transform="matrix(0.05,0,0,0.05,104.85000000000001,0)" xlink:href="#aZ"/><use transform="matrix(0.05,0,0,0.05,108.80000000000001,0)" xlink:href="#aX"/><use transform="matrix(0.05,0,0,0.05,118.80000000000001,0)" xlink:href="#bh"/><use transform="matrix(0.05,0,0,0.05,128.8,0)" xlink:href="#br"/></g><g id="aD"><use transform="matrix(0.05,0,0,0.05,0,0)" xlink:href="#bz"/><use transform="matrix(0.05,0,0,0.05,10,0)" xlink:href="#bk"/><use transform="matrix(0.05,0,0,0.05,20,0)" xlink:href="#bk"/><use transform="matrix(0.05,0,0,0.05,30,0)" xlink:href="#bm"/><use transform="matrix(0.05,0,0,0.05,33.95,0)" xlink:href="#aU"/><use transform="matrix(0.05,0,0,0.05,43.95,0)" xlink:href="#be"/><use transform="matrix(0.05,0,0,0.05,53.95,0)" xlink:href="#aX"/></g><g id="aE"><use transform="matrix(0.05,0,0,0.05,0,0)" xlink:href="#aT"/><use transform="matrix(0.05,0,0,0.05,9,0)" xlink:href="#be"/><use transform="matrix(0.05,0,0,0.05,19,0)" xlink:href="#bs"/><use transform="matrix(0.05,0,0,0.05,28,0)" xlink:href="#aU"/><use transform="matrix(0.05,0,0,0.05,38,0)" xlink:href="#bb"/><use transform="matrix(0.05,0,0,0.05,50.95,0)" xlink:href="#aT"/><use transform="matrix(0.05,0,0,0.05,59.95,0)" xlink:href="#aU"/><use transform="matrix(0.05,0,0,0.05,69.95,0)" xlink:href="#bc"/></g><g id="aF"><use transform="matrix(0.05,0,0,0.05,0,0)" xlink:href="#aS"/><use transform="matrix(0.05,0,0,0.05,10,0)" xlink:href="#aT"/><use transform="matrix(0.05,0,0,0.05,19,0)" xlink:href="#aU"/><use transform="matrix(0.05,0,0,0.05,29,0)" xlink:href="#bc"/><use transform="matrix(0.05,0,0,0.05,34.95,0)" xlink:href="#bg"/><use transform="matrix(0.05,0,0,0.05,39.95,0)" xlink:href="#aS"/><use transform="matrix(0.05,0,0,0.05,49.95,0)" xlink:href="#aT"/><use transform="matrix(0.05,0,0,0.05,58.95,0)" xlink:href="#aU"/><use transform="matrix(0.05,0,0,0.05,68.95,0)" xlink:href="#bc"/><use transform="matrix(0.05,0,0,0.05,74.9,0)" xlink:href="#br"/></g><g id="aG"><use transform="matrix(0.05,0,0,0.05,0,0)" xlink:href="#bs"/><use transform="matrix(0.05,0,0,0.05,9,0)" xlink:href="#bk"/><use transform="matrix(0.05,0,0,0.05,19,0)" xlink:href="#aZ"/><use transform="matrix(0.05,0,0,0.05,22.95,0)" xlink:href="#bl"/></g><g id="aH"><use transform="matrix(0.05,0,0,0.05,0,0)" xlink:href="#bs"/><use transform="matrix(0.05,0,0,0.05,9,0)" xlink:href="#aU"/><use transform="matrix(0.05,0,0,0.05,19,0)" xlink:href="#bc"/><use transform="matrix(0.05,0,0,0.05,24.95,0)" xlink:href="#aZ"/><use transform="matrix(0.05,0,0,0.05,28.899999999999995,0)" xlink:href="#bC"/><use transform="matrix(0.05,0,0,0.05,33.9,0)" xlink:href="#ba"/><use transform="matrix(0.05,0,0,0.05,42.9,0)" xlink:href="#bD"/><use transform="matrix(0.05,0,0,0.05,52.900000000000006,0)" xlink:href="#bk"/><use transform="matrix(0.05,0,0,0.05,62.900000000000006,0)" xlink:href="#bh"/><use transform="matrix(0.05,0,0,0.05,72.9,0)" xlink:href="#aZ"/><use transform="matrix(0.05,0,0,0.05,76.85000000000001,0)" xlink:href="#aX"/></g><g id="aI"><use transform="matrix(0.05,0,0,0.05,0,0)" xlink:href="#bz"/><use transform="matrix(0.05,0,0,0.05,10,0)" xlink:href="#bk"/><use transform="matrix(0.05,0,0,0.05,20,0)" xlink:href="#bk"/><use transform="matrix(0.05,0,0,0.05,30,0)" xlink:href="#bm"/><use transform="matrix(0.05,0,0,0.05,33.95,0)" xlink:href="#aU"/><use transform="matrix(0.05,0,0,0.05,43.95,0)" xlink:href="#be"/><use transform="matrix(0.05,0,0,0.05,53.95,0)" xlink:href="#aX"/></g><g id="aJ"><use transform="matrix(0.05,0,0,0.05,0,0)" xlink:href="#bh"/><use transform="matrix(0.05,0,0,0.05,10,0)" xlink:href="#aU"/><use transform="matrix(0.05,0,0,0.05,20,0)" xlink:href="#aY"/><use transform="matrix(0.05,0,0,0.05,25,0)" xlink:href="#bb"/><use transform="matrix(0.05,0,0,0.05,37.95,0)" xlink:href="#aT"/><use transform="matrix(0.05,0,0,0.05,46.95,0)" xlink:href="#aU"/><use transform="matrix(0.05,0,0,0.05,56.95,0)" xlink:href="#bc"/><use transform="matrix(0.05,0,0,0.05,62.900000000000006,0)" xlink:href="#bA"/><use transform="matrix(0.05,0,0,0.05,67.9,0)" xlink:href="#aX"/><use transform="matrix(0.05,0,0,0.05,77.9,0)" xlink:href="#bC"/><use transform="matrix(0.05,0,0,0.05,82.9,0)" xlink:href="#bk"/></g><use transform="matrix(0.05,0,0,0.05,0,0)" xlink:href="#bg" id="aK"/><g id="aL"><use transform="matrix(0.05,0,0,0.05,0,0)" xlink:href="#bm"/><use transform="matrix(0.05,0,0,0.05,3.95,0)" xlink:href="#aZ"/><use transform="matrix(0.05,0,0,0.05,7.9,0)" xlink:href="#aT"/><use transform="matrix(0.05,0,0,0.05,16.9,0)" xlink:href="#aY"/><use transform="matrix(0.05,0,0,0.05,21.9,0)" xlink:href="#aR"/><use transform="matrix(0.05,0,0,0.05,32.4,0)" xlink:href="#aT"/><use transform="matrix(0.05,0,0,0.05,41.4,0)" xlink:href="#aY"/><use transform="matrix(0.05,0,0,0.05,46.4,0)" xlink:href="#bc"/><use transform="matrix(0.05,0,0,0.05,52.35,0)" xlink:href="#aZ"/><use transform="matrix(0.05,0,0,0.05,56.300000000000004,0)" xlink:href="#aX"/><use transform="matrix(0.05,0,0,0.05,66.30000000000001,0)" xlink:href="#bh"/><use transform="matrix(0.05,0,0,0.05,76.30000000000001,0)" xlink:href="#aV"/></g><g id="aM"><use transform="matrix(0.05,0,0,0.05,0,0)" xlink:href="#bl"/><use transform="matrix(0.05,0,0,0.05,10,0)" xlink:href="#aU"/><use transform="matrix(0.05,0,0,0.05,20,0)" xlink:href="#bm"/><use transform="matrix(0.05,0,0,0.05,23.95,0)" xlink:href="#aU"/><use transform="matrix(0.05,0,0,0.05,33.95,0)" xlink:href="#aY"/><use transform="matrix(0.05,0,0,0.05,38.95,0)" xlink:href="#aU"/><use transform="matrix(0.05,0,0,0.05,48.95,0)" xlink:href="#bb"/><use transform="matrix(0.05,0,0,0.05,61.900000000000006,0)" xlink:href="#aT"/><use transform="matrix(0.05,0,0,0.05,70.9,0)" xlink:href="#aU"/><use transform="matrix(0.05,0,0,0.05,80.9,0)" xlink:href="#bc"/><use transform="matrix(0.05,0,0,0.05,86.85000000000001,0)" xlink:href="#bH"/><use transform="matrix(0.05,0,0,0.05,98.85000000000001,0)" xlink:href="#bo"/><use transform="matrix(0.05,0,0,0.05,107.85000000000001,0)" xlink:href="#bo"/><use transform="matrix(0.05,0,0,0.05,116.85000000000001,0)" xlink:href="#bk"/><use transform="matrix(0.05,0,0,0.05,126.85000000000001,0)" xlink:href="#aS"/><use transform="matrix(0.05,0,0,0.05,136.85000000000002,0)" xlink:href="#aX"/><use transform="matrix(0.05,0,0,0.05,146.85000000000002,0)" xlink:href="#aY"/></g><g id="aN"><use transform="matrix(0.05,0,0,0.05,0,0)" xlink:href="#aS"/><use transform="matrix(0.05,0,0,0.05,10,0)" xlink:href="#aT"/><use transform="matrix(0.05,0,0,0.05,19,0)" xlink:href="#aU"/><use transform="matrix(0.05,0,0,0.05,29,0)" xlink:href="#bc"/><use transform="matrix(0.05,0,0,0.05,34.95,0)" xlink:href="#aX"/><use transform="matrix(0.05,0,0,0.05,44.95,0)" xlink:href="#be"/><use transform="matrix(0.05,0,0,0.05,54.95,0)" xlink:href="#bf"/><use transform="matrix(0.05,0,0,0.05,69.9,0)" xlink:href="#aU"/><use transform="matrix(0.05,0,0,0.05,79.9,0)" xlink:href="#bg"/><use transform="matrix(0.05,0,0,0.05,84.9,0)" xlink:href="#aT"/><use transform="matrix(0.05,0,0,0.05,93.9,0)" xlink:href="#aY"/><use transform="matrix(0.05,0,0,0.05,98.9,0)" xlink:href="#bc"/><use transform="matrix(0.05,0,0,0.05,104.85000000000001,0)" xlink:href="#aZ"/><use transform="matrix(0.05,0,0,0.05,108.80000000000001,0)" xlink:href="#aX"/><use transform="matrix(0.05,0,0,0.05,118.80000000000001,0)" xlink:href="#bh"/><use transform="matrix(0.05,0,0,0.05,128.8,0)" xlink:href="#br"/></g><g id="aO"><use transform="matrix(0.05,0,0,0.05,0,0)" xlink:href="#aS"/><use transform="matrix(0.05,0,0,0.05,10,0)" xlink:href="#bi"/><use transform="matrix(0.05,0,0,0.05,20,0)" xlink:href="#bl"/><use transform="matrix(0.05,0,0,0.05,30,0)" xlink:href="#be"/><use transform="matrix(0.05,0,0,0.05,40,0)" xlink:href="#aY"/><use transform="matrix(0.05,0,0,0.05,45,0)" xlink:href="#aU"/><use transform="matrix(0.05,0,0,0.05,55,0)" xlink:href="#bb"/><use transform="matrix(0.05,0,0,0.05,67.95,0)" xlink:href="#aT"/><use transform="matrix(0.05,0,0,0.05,76.95,0)" xlink:href="#aU"/><use transform="matrix(0.05,0,0,0.05,86.95,0)" xlink:href="#bc"/><use transform="matrix(0.05,0,0,0.05,92.9,0)" xlink:href="#aW"/><use transform="matrix(0.05,0,0,0.05,104.9,0)" xlink:href="#bo"/><use transform="matrix(0.05,0,0,0.05,113.9,0)" xlink:href="#bk"/><use transform="matrix(0.05,0,0,0.05,123.9,0)" xlink:href="#bi"/><use transform="matrix(0.05,0,0,0.05,133.9,0)" xlink:href="#bk"/><use transform="matrix(0.05,0,0,0.05,143.9,0)" xlink:href="#aZ"/><use transform="matrix(0.05,0,0,0.05,147.85,0)" xlink:href="#aX"/><use transform="matrix(0.05,0,0,0.05,157.85,0)" xlink:href="#aY"/><use transform="matrix(0.05,0,0,0.05,162.85,0)" xlink:href="#aT"/></g><g id="aP"><use transform="matrix(0.05,0,0,0.05,0,0)" xlink:href="#aS"/><use transform="matrix(0.05,0,0,0.05,10,0)" xlink:href="#aT"/><use transform="matrix(0.05,0,0,0.05,19,0)" xlink:href="#aU"/><use transform="matrix(0.05,0,0,0.05,29,0)" xlink:href="#bc"/><use transform="matrix(0.05,0,0,0.05,34.95,0)" xlink:href="#aX"/><use transform="matrix(0.05,0,0,0.05,44.95,0)" xlink:href="#be"/><use transform="matrix(0.05,0,0,0.05,54.95,0)" xlink:href="#bf"/><use transform="matrix(0.05,0,0,0.05,69.9,0)" xlink:href="#aU"/><use transform="matrix(0.05,0,0,0.05,79.9,0)" xlink:href="#bg"/><use transform="matrix(0.05,0,0,0.05,84.9,0)" xlink:href="#aT"/><use transform="matrix(0.05,0,0,0.05,93.9,0)" xlink:href="#aY"/><use transform="matrix(0.05,0,0,0.05,98.9,0)" xlink:href="#bc"/><use transform="matrix(0.05,0,0,0.05,104.85000000000001,0)" xlink:href="#aZ"/><use transform="matrix(0.05,0,0,0.05,108.80000000000001,0)" xlink:href="#aX"/><use transform="matrix(0.05,0,0,0.05,118.80000000000001,0)" xlink:href="#bh"/><use transform="matrix(0.05,0,0,0.05,128.8,0)" xlink:href="#bE"/></g><g id="aQ"><use transform="matrix(0.05,0,0,0.05,0,0)" xlink:href="#aX"/><use transform="matrix(0.05,0,0,0.05,10,0)" xlink:href="#aU"/><use transform="matrix(0.05,0,0,0.05,20,0)" xlink:href="#bj"/><use transform="matrix(0.05,0,0,0.05,32.95,0)" xlink:href="#aW"/><use transform="matrix(0.05,0,0,0.05,44.95,0)" xlink:href="#bo"/><use transform="matrix(0.05,0,0,0.05,53.95,0)" xlink:href="#bk"/><use transform="matrix(0.05,0,0,0.05,63.95,0)" xlink:href="#bi"/><use transform="matrix(0.05,0,0,0.05,73.95,0)" xlink:href="#bk"/><use transform="matrix(0.05,0,0,0.05,83.95,0)" xlink:href="#aZ"/><use transform="matrix(0.05,0,0,0.05,87.9,0)" xlink:href="#aX"/><use transform="matrix(0.05,0,0,0.05,97.9,0)" xlink:href="#aY"/><use transform="matrix(0.05,0,0,0.05,102.9,0)" xlink:href="#aT"/><use transform="matrix(0.05,0,0,0.05,111.9,0)" xlink:href="#bg"/><use transform="matrix(0.05,0,0,0.05,116.9,0)" xlink:href="#aZ"/><use transform="matrix(0.05,0,0,0.05,120.85000000000001,0)" xlink:href="#aX"/><use transform="matrix(0.05,0,0,0.05,130.85000000000002,0)" xlink:href="#aY"/><use transform="matrix(0.05,0,0,0.05,135.85000000000002,0)" xlink:href="#br"/></g></defs></g></svg>